M48
; DRILL file {KiCad 9.0.5} date 2025-10-30T16:22:39+0100
; FORMAT={-:-/ absolute / metric / decimal}
; #@! TF.CreationDate,2025-10-30T16:22:39+01:00
; #@! TF.GenerationSoftware,Kicad,Pcbnew,9.0.5
; #@! TF.FileFunction,Plated,1,2,PTH
FMAT,2
METRIC
; #@! TA.AperFunction,Plated,PTH,ComponentDrill
T1C0.800
; #@! TA.AperFunction,Plated,PTH,ComponentDrill
T2C1.000
%
G90
G05
T1
X130.1Y-87.52
X130.1Y-97.68
X135.25Y-87.47
X135.25Y-97.63
T2
X126.3Y-78.15
X127.76Y-104.65
X127.77Y-110.7
X127.77Y-116.9
X127.86Y-123.0
X128.84Y-78.15
X130.3Y-104.65
X130.31Y-110.7
X130.31Y-116.9
X130.4Y-123.0
X131.38Y-78.15
X132.84Y-104.65
X132.85Y-110.7
X132.85Y-116.9
X132.94Y-123.0
X133.92Y-78.15
X142.77Y-76.08
X142.77Y-78.62
X142.77Y-81.16
X142.77Y-83.7
X142.77Y-86.24
X142.77Y-88.78
X142.77Y-91.32
X142.77Y-93.86
X142.77Y-96.4
X142.77Y-98.94
X142.77Y-101.48
X142.77Y-104.02
X142.77Y-106.56
X142.77Y-109.1
X142.77Y-111.64
X142.77Y-114.18
X142.77Y-116.72
X142.77Y-119.26
X142.77Y-121.8
X142.77Y-124.34
X160.55Y-76.08
X160.55Y-78.62
X160.55Y-81.16
X160.55Y-83.7
X160.55Y-86.24
X160.55Y-88.78
X160.55Y-91.32
X160.55Y-93.86
X160.55Y-96.4
X160.55Y-98.94
X160.55Y-101.48
X160.55Y-104.02
X160.55Y-106.56
X160.55Y-109.1
X160.55Y-111.64
X160.55Y-114.18
X160.55Y-116.72
X160.55Y-119.26
X160.55Y-121.8
X160.55Y-124.34
X168.57Y-104.6
X168.57Y-110.9
X168.81Y-117.0
X168.86Y-122.95
X171.0Y-78.3
X171.11Y-104.6
X171.11Y-110.9
X171.35Y-117.0
X171.4Y-122.95
X173.5Y-78.3
X173.65Y-104.6
X173.65Y-110.9
X173.89Y-117.0
X173.94Y-122.95
M30
