%TF.GenerationSoftware,KiCad,Pcbnew,9.0.5*%
%TF.CreationDate,2025-10-27T16:49:33+01:00*%
%TF.ProjectId,motherboard,6d6f7468-6572-4626-9f61-72642e6b6963,rev?*%
%TF.SameCoordinates,Original*%
%TF.FileFunction,Copper,L2,Bot*%
%TF.FilePolarity,Positive*%
%FSLAX46Y46*%
G04 Gerber Fmt 4.6, Leading zero omitted, Abs format (unit mm)*
G04 Created by KiCad (PCBNEW 9.0.5) date 2025-10-27 16:49:33*
%MOMM*%
%LPD*%
G01*
G04 APERTURE LIST*
G04 Aperture macros list*
%AMRoundRect*
0 Rectangle with rounded corners*
0 $1 Rounding radius*
0 $2 $3 $4 $5 $6 $7 $8 $9 X,Y pos of 4 corners*
0 Add a 4 corners polygon primitive as box body*
4,1,4,$2,$3,$4,$5,$6,$7,$8,$9,$2,$3,0*
0 Add four circle primitives for the rounded corners*
1,1,$1+$1,$2,$3*
1,1,$1+$1,$4,$5*
1,1,$1+$1,$6,$7*
1,1,$1+$1,$8,$9*
0 Add four rect primitives between the rounded corners*
20,1,$1+$1,$2,$3,$4,$5,0*
20,1,$1+$1,$4,$5,$6,$7,0*
20,1,$1+$1,$6,$7,$8,$9,0*
20,1,$1+$1,$8,$9,$2,$3,0*%
G04 Aperture macros list end*
%TA.AperFunction,ComponentPad*%
%ADD10R,1.700000X1.700000*%
%TD*%
%TA.AperFunction,ComponentPad*%
%ADD11C,1.700000*%
%TD*%
%TA.AperFunction,ComponentPad*%
%ADD12O,2.400000X1.800000*%
%TD*%
%TA.AperFunction,ComponentPad*%
%ADD13C,1.600000*%
%TD*%
%TA.AperFunction,ComponentPad*%
%ADD14RoundRect,0.250000X-0.600000X-0.750000X0.600000X-0.750000X0.600000X0.750000X-0.600000X0.750000X0*%
%TD*%
%TA.AperFunction,ComponentPad*%
%ADD15O,1.700000X2.000000*%
%TD*%
%TA.AperFunction,Conductor*%
%ADD16C,0.200000*%
%TD*%
%TA.AperFunction,Conductor*%
%ADD17C,0.500000*%
%TD*%
G04 APERTURE END LIST*
D10*
%TO.P,J10,1*%
%TO.N,Net-(A1-GPIO19)*%
X168570000Y-104600000D03*
D11*
%TO.P,J10,2*%
%TO.N,/5V*%
X171110000Y-104600000D03*
%TO.P,J10,3*%
%TO.N,GND*%
X173650000Y-104600000D03*
%TD*%
D10*
%TO.P,J9,1*%
%TO.N,Net-(A1-GPIO18)*%
X168570000Y-110900000D03*
D11*
%TO.P,J9,2*%
%TO.N,/5V*%
X171110000Y-110900000D03*
%TO.P,J9,3*%
%TO.N,GND*%
X173650000Y-110900000D03*
%TD*%
D10*
%TO.P,J8,1*%
%TO.N,Net-(A1-GPIO12)*%
X132840000Y-104650000D03*
D11*
%TO.P,J8,2*%
%TO.N,/5V*%
X130300000Y-104650000D03*
%TO.P,J8,3*%
%TO.N,GND*%
X127760000Y-104650000D03*
%TD*%
D10*
%TO.P,J7,1*%
%TO.N,Net-(A1-GPIO13)*%
X132850000Y-110700000D03*
D11*
%TO.P,J7,2*%
%TO.N,/5V*%
X130310000Y-110700000D03*
%TO.P,J7,3*%
%TO.N,GND*%
X127770000Y-110700000D03*
%TD*%
D12*
%TO.P,A1,1,GPIO0*%
%TO.N,unconnected-(A1-GPIO0-Pad1)*%
X142770000Y-76080000D03*
%TO.P,A1,2,GPIO1*%
%TO.N,unconnected-(A1-GPIO1-Pad2)*%
X142770000Y-78620000D03*
%TO.P,A1,3,GND*%
%TO.N,GND*%
X142770000Y-81160000D03*
%TO.P,A1,4,GPIO2*%
%TO.N,Net-(A1-GPIO2)*%
X142770000Y-83700000D03*
%TO.P,A1,5,GPIO3*%
%TO.N,Net-(A1-GPIO3)*%
X142770000Y-86240000D03*
%TO.P,A1,6,GPIO4*%
%TO.N,unconnected-(A1-GPIO4-Pad6)*%
X142770000Y-88780000D03*
%TO.P,A1,7,GPIO5*%
%TO.N,unconnected-(A1-GPIO5-Pad7)*%
X142770000Y-91320000D03*
%TO.P,A1,8,GND*%
%TO.N,GND*%
X142770000Y-93860000D03*
%TO.P,A1,9,GPIO6*%
%TO.N,unconnected-(A1-GPIO6-Pad9)*%
X142770000Y-96400000D03*
%TO.P,A1,10,GPIO7*%
%TO.N,unconnected-(A1-GPIO7-Pad10)*%
X142770000Y-98940000D03*
%TO.P,A1,11,GPIO8*%
%TO.N,unconnected-(A1-GPIO8-Pad11)*%
X142770000Y-101480000D03*
%TO.P,A1,12,GPIO9*%
%TO.N,unconnected-(A1-GPIO9-Pad12)*%
X142770000Y-104020000D03*
%TO.P,A1,13,GND*%
%TO.N,GND*%
X142770000Y-106560000D03*
%TO.P,A1,14,GPIO10*%
%TO.N,unconnected-(A1-GPIO10-Pad14)*%
X142770000Y-109100000D03*
%TO.P,A1,15,GPIO11*%
%TO.N,unconnected-(A1-GPIO11-Pad15)*%
X142770000Y-111640000D03*
%TO.P,A1,16,GPIO12*%
%TO.N,Net-(A1-GPIO12)*%
X142770000Y-114180000D03*
%TO.P,A1,17,GPIO13*%
%TO.N,Net-(A1-GPIO13)*%
X142770000Y-116720000D03*
%TO.P,A1,18,GND*%
%TO.N,GND*%
X142770000Y-119260000D03*
%TO.P,A1,19,GPIO14*%
%TO.N,Net-(A1-GPIO14)*%
X142770000Y-121800000D03*
%TO.P,A1,20,GPIO15*%
%TO.N,Net-(A1-GPIO15)*%
X142770000Y-124340000D03*
%TO.P,A1,21,GPIO16*%
%TO.N,Net-(A1-GPIO16)*%
X160550000Y-124340000D03*
%TO.P,A1,22,GPIO17*%
%TO.N,Net-(A1-GPIO17)*%
X160550000Y-121800000D03*
%TO.P,A1,23,GND*%
%TO.N,GND*%
X160550000Y-119260000D03*
%TO.P,A1,24,GPIO18*%
%TO.N,Net-(A1-GPIO18)*%
X160550000Y-116720000D03*
%TO.P,A1,25,GPIO19*%
%TO.N,Net-(A1-GPIO19)*%
X160550000Y-114180000D03*
%TO.P,A1,26,GPIO20*%
%TO.N,unconnected-(A1-GPIO20-Pad26)*%
X160550000Y-111640000D03*
%TO.P,A1,27,GPIO21*%
%TO.N,unconnected-(A1-GPIO21-Pad27)*%
X160550000Y-109100000D03*
%TO.P,A1,28,GND*%
%TO.N,GND*%
X160550000Y-106560000D03*
%TO.P,A1,29,GPIO22*%
%TO.N,unconnected-(A1-GPIO22-Pad29)*%
X160550000Y-104020000D03*
%TO.P,A1,30,RUN*%
%TO.N,unconnected-(A1-RUN-Pad30)*%
X160550000Y-101480000D03*
%TO.P,A1,31,GPIO26_ADC0*%
%TO.N,unconnected-(A1-GPIO26_ADC0-Pad31)*%
X160550000Y-98940000D03*
%TO.P,A1,32,GPIO27_ADC1*%
%TO.N,unconnected-(A1-GPIO27_ADC1-Pad32)*%
X160550000Y-96400000D03*
%TO.P,A1,33,AGND*%
%TO.N,unconnected-(A1-AGND-Pad33)*%
X160550000Y-93860000D03*
%TO.P,A1,34,GPIO28_ADC2*%
%TO.N,unconnected-(A1-GPIO28_ADC2-Pad34)*%
X160550000Y-91320000D03*
%TO.P,A1,35,ADC_VREF*%
%TO.N,unconnected-(A1-ADC_VREF-Pad35)*%
X160550000Y-88780000D03*
%TO.P,A1,36,3V3*%
%TO.N,unconnected-(A1-3V3-Pad36)*%
X160550000Y-86240000D03*
%TO.P,A1,37,3V3_EN*%
%TO.N,unconnected-(A1-3V3_EN-Pad37)*%
X160550000Y-83700000D03*
%TO.P,A1,38,GND*%
%TO.N,GND*%
X160550000Y-81160000D03*
%TO.P,A1,39,VSYS*%
%TO.N,/5V*%
X160550000Y-78620000D03*
%TO.P,A1,40,VBUS*%
%TO.N,unconnected-(A1-VBUS-Pad40)*%
X160550000Y-76080000D03*
%TD*%
D13*
%TO.P,R2,1*%
%TO.N,GND*%
X135250000Y-87470000D03*
%TO.P,R2,2*%
%TO.N,Net-(A1-GPIO3)*%
X135250000Y-97630000D03*
%TD*%
%TO.P,R1,1*%
%TO.N,Net-(A1-GPIO3)*%
X130100000Y-97680000D03*
%TO.P,R1,2*%
%TO.N,/ECHO*%
X130100000Y-87520000D03*
%TD*%
D10*
%TO.P,J6,1*%
%TO.N,GND*%
X133920000Y-78150000D03*
D11*
%TO.P,J6,2*%
%TO.N,/ECHO*%
X131380000Y-78150000D03*
%TO.P,J6,3*%
%TO.N,Net-(A1-GPIO2)*%
X128840000Y-78150000D03*
%TO.P,J6,4*%
%TO.N,/5V*%
X126300000Y-78150000D03*
%TD*%
D10*
%TO.P,J5,1*%
%TO.N,Net-(A1-GPIO16)*%
X168860000Y-122950000D03*
D11*
%TO.P,J5,2*%
%TO.N,/5V*%
X171400000Y-122950000D03*
%TO.P,J5,3*%
%TO.N,GND*%
X173940000Y-122950000D03*
%TD*%
D10*
%TO.P,J4,1*%
%TO.N,Net-(A1-GPIO17)*%
X168810000Y-117000000D03*
D11*
%TO.P,J4,2*%
%TO.N,/5V*%
X171350000Y-117000000D03*
%TO.P,J4,3*%
%TO.N,GND*%
X173890000Y-117000000D03*
%TD*%
D10*
%TO.P,J3,1*%
%TO.N,Net-(A1-GPIO14)*%
X132850000Y-116900000D03*
D11*
%TO.P,J3,2*%
%TO.N,/5V*%
X130310000Y-116900000D03*
%TO.P,J3,3*%
%TO.N,GND*%
X127770000Y-116900000D03*
%TD*%
D14*
%TO.P,J2,1*%
%TO.N,/5V*%
X171000000Y-78300000D03*
D15*
%TO.P,J2,2*%
%TO.N,GND*%
X173500000Y-78300000D03*
%TD*%
D10*
%TO.P,J1,1*%
%TO.N,Net-(A1-GPIO15)*%
X132940000Y-123000000D03*
D11*
%TO.P,J1,2*%
%TO.N,/5V*%
X130400000Y-123000000D03*
%TO.P,J1,3*%
%TO.N,GND*%
X127860000Y-123000000D03*
%TD*%
D16*
%TO.N,Net-(A1-GPIO19)*%
X168570000Y-104600000D02*
X167450000Y-104600000D01*
X162120000Y-114180000D02*
X160550000Y-114180000D01*
X167450000Y-104600000D02*
X164450000Y-107600000D01*
X164450000Y-107600000D02*
X164450000Y-111850000D01*
X164450000Y-111850000D02*
X162120000Y-114180000D01*
%TO.N,Net-(A1-GPIO18)*%
X168570000Y-110900000D02*
X166850000Y-110900000D01*
X166850000Y-110900000D02*
X165150000Y-112600000D01*
X165150000Y-112600000D02*
X165150000Y-115000000D01*
X165150000Y-115000000D02*
X163430000Y-116720000D01*
X163430000Y-116720000D02*
X160550000Y-116720000D01*
%TO.N,Net-(A1-GPIO17)*%
X168810000Y-117000000D02*
X166850000Y-117000000D01*
X163800000Y-121800000D02*
X160550000Y-121800000D01*
X166850000Y-117000000D02*
X165000000Y-118850000D01*
X165000000Y-118850000D02*
X165000000Y-120600000D01*
X165000000Y-120600000D02*
X163800000Y-121800000D01*
%TO.N,Net-(A1-GPIO16)*%
X166250000Y-122950000D02*
X164850000Y-124350000D01*
X168860000Y-122950000D02*
X166250000Y-122950000D01*
X164850000Y-124350000D02*
X164840000Y-124340000D01*
X164840000Y-124340000D02*
X160550000Y-124340000D01*
%TO.N,Net-(A1-GPIO15)*%
X136750000Y-123000000D02*
X138100000Y-124350000D01*
X132940000Y-123000000D02*
X136750000Y-123000000D01*
X138100000Y-124350000D02*
X138110000Y-124340000D01*
X138110000Y-124340000D02*
X142770000Y-124340000D01*
%TO.N,Net-(A1-GPIO14)*%
X132850000Y-116900000D02*
X135500000Y-116900000D01*
X135500000Y-116900000D02*
X140400000Y-121800000D01*
X140400000Y-121800000D02*
X142770000Y-121800000D01*
%TO.N,Net-(A1-GPIO13)*%
X132850000Y-110700000D02*
X134450000Y-110700000D01*
X134450000Y-110700000D02*
X140470000Y-116720000D01*
X140470000Y-116720000D02*
X142770000Y-116720000D01*
%TO.N,Net-(A1-GPIO12)*%
X132840000Y-104650000D02*
X135750000Y-104650000D01*
X135750000Y-104650000D02*
X139250000Y-108150000D01*
X139250000Y-108150000D02*
X139250000Y-111700000D01*
X139250000Y-111700000D02*
X141730000Y-114180000D01*
X141730000Y-114180000D02*
X142770000Y-114180000D01*
D17*
%TO.N,/5V*%
X171000000Y-78300000D02*
X171000000Y-78450000D01*
X171000000Y-78450000D02*
X171400000Y-78850000D01*
X171400000Y-78850000D02*
X171400000Y-122950000D01*
X126300000Y-78150000D02*
X126300000Y-85700000D01*
X126300000Y-85700000D02*
X127250000Y-86650000D01*
X127250000Y-86650000D02*
X127250000Y-98700000D01*
X127250000Y-98700000D02*
X130400000Y-101850000D01*
X130400000Y-101850000D02*
X130400000Y-123000000D01*
%TO.N,/ECHO*%
X130100000Y-87520000D02*
X130100000Y-84300000D01*
X130100000Y-84300000D02*
X131380000Y-83020000D01*
X131380000Y-83020000D02*
X131380000Y-78150000D01*
D16*
%TO.N,Net-(A1-GPIO3)*%
X135250000Y-97630000D02*
X137770000Y-97630000D01*
X137770000Y-97630000D02*
X138700000Y-96700000D01*
X138700000Y-96700000D02*
X138700000Y-87500000D01*
X138700000Y-87500000D02*
X139960000Y-86240000D01*
X139960000Y-86240000D02*
X142770000Y-86240000D01*
X130100000Y-97680000D02*
X135200000Y-97680000D01*
X135200000Y-97680000D02*
X135250000Y-97630000D01*
%TO.N,Net-(A1-GPIO2)*%
X139350000Y-77000000D02*
X139350000Y-82200000D01*
X139350000Y-82200000D02*
X140850000Y-83700000D01*
X128840000Y-78150000D02*
X128840000Y-75610000D01*
X128840000Y-75610000D02*
X129900000Y-74550000D01*
X129900000Y-74550000D02*
X136900000Y-74550000D01*
X140850000Y-83700000D02*
X142770000Y-83700000D01*
X136900000Y-74550000D02*
X139350000Y-77000000D01*
D17*
%TO.N,/5V*%
X171000000Y-78300000D02*
X171000000Y-75400000D01*
X171000000Y-75400000D02*
X167950000Y-72350000D01*
X167950000Y-72350000D02*
X129100000Y-72350000D01*
X129100000Y-72350000D02*
X126300000Y-75150000D01*
X126300000Y-75150000D02*
X126300000Y-78150000D01*
X171000000Y-78300000D02*
X160870000Y-78300000D01*
X160870000Y-78300000D02*
X160550000Y-78620000D01*
%TD*%
%TA.AperFunction,Conductor*%
%TO.N,GND*%
G36*
X134405703Y-111505384D02*
G01*
X134412180Y-111511415D01*
X140101284Y-117200520D01*
X140101286Y-117200521D01*
X140101290Y-117200524D01*
X140238209Y-117279573D01*
X140238216Y-117279577D01*
X140390943Y-117320501D01*
X140390945Y-117320501D01*
X140556654Y-117320501D01*
X140556670Y-117320500D01*
X141128164Y-117320500D01*
X141195203Y-117340185D01*
X141238648Y-117388204D01*
X141272185Y-117454023D01*
X141401752Y-117632358D01*
X141401756Y-117632363D01*
X141557636Y-117788243D01*
X141557641Y-117788247D01*
X141697680Y-117889991D01*
X141740346Y-117945320D01*
X141746325Y-118014934D01*
X141713720Y-118076729D01*
X141697681Y-118090627D01*
X141557959Y-118192142D01*
X141557958Y-118192142D01*
X141402142Y-118347958D01*
X141272613Y-118526239D01*
X141172567Y-118722589D01*
X141104473Y-118932161D01*
X141104473Y-118932164D01*
X141092145Y-119010000D01*
X142336988Y-119010000D01*
X142304075Y-119067007D01*
X142270000Y-119194174D01*
X142270000Y-119325826D01*
X142304075Y-119452993D01*
X142336988Y-119510000D01*
X141092145Y-119510000D01*
X141104473Y-119587835D01*
X141104473Y-119587838D01*
X141172567Y-119797410D01*
X141272613Y-119993760D01*
X141402142Y-120172041D01*
X141557958Y-120327857D01*
X141557964Y-120327862D01*
X141697680Y-120429372D01*
X141740346Y-120484702D01*
X141746325Y-120554315D01*
X141713719Y-120616110D01*
X141697681Y-120630008D01*
X141557636Y-120731756D01*
X141401756Y-120887636D01*
X141401752Y-120887641D01*
X141272185Y-121065976D01*
X141238648Y-121131796D01*
X141190674Y-121182591D01*
X141128164Y-121199500D01*
X140700097Y-121199500D01*
X140633058Y-121179815D01*
X140612416Y-121163181D01*
X135987590Y-116538355D01*
X135987588Y-116538352D01*
X135868717Y-116419481D01*
X135868716Y-116419480D01*
X135781904Y-116369360D01*
X135781904Y-116369359D01*
X135781900Y-116369358D01*
X135731785Y-116340423D01*
X135579057Y-116299499D01*
X135420943Y-116299499D01*
X135413347Y-116299499D01*
X135413331Y-116299500D01*
X134324499Y-116299500D01*
X134257460Y-116279815D01*
X134211705Y-116227011D01*
X134200499Y-116175500D01*
X134200499Y-116002129D01*
X134200498Y-116002123D01*
X134198762Y-115985976D01*
X134194091Y-115942517D01*
X134193736Y-115941566D01*
X134143797Y-115807671D01*
X134143793Y-115807664D01*
X134057547Y-115692455D01*
X134057544Y-115692452D01*
X133942335Y-115606206D01*
X133942328Y-115606202D01*
X133807482Y-115555908D01*
X133807483Y-115555908D01*
X133747883Y-115549501D01*
X133747881Y-115549500D01*
X133747873Y-115549500D01*
X133747864Y-115549500D01*
X131952129Y-115549500D01*
X131952123Y-115549501D01*
X131892516Y-115555908D01*
X131757671Y-115606202D01*
X131757664Y-115606206D01*
X131642455Y-115692452D01*
X131642452Y-115692455D01*
X131556206Y-115807664D01*
X131556203Y-115807669D01*
X131507189Y-115939083D01*
X131465317Y-115995016D01*
X131399853Y-116019433D01*
X131331580Y-116004581D01*
X131303326Y-115983430D01*
X131186819Y-115866923D01*
X131153334Y-115805600D01*
X131150500Y-115779242D01*
X131150500Y-111820758D01*
X131170185Y-111753719D01*
X131186818Y-111733077D01*
X131189788Y-111730106D01*
X131189792Y-111730104D01*
X131303329Y-111616566D01*
X131364648Y-111583084D01*
X131434340Y-111588068D01*
X131490274Y-111629939D01*
X131507189Y-111660917D01*
X131556202Y-111792328D01*
X131556206Y-111792335D01*
X131642452Y-111907544D01*
X131642455Y-111907547D01*
X131757664Y-111993793D01*
X131757671Y-111993797D01*
X131892517Y-112044091D01*
X131892516Y-112044091D01*
X131899444Y-112044835D01*
X131952127Y-112050500D01*
X133747872Y-112050499D01*
X133807483Y-112044091D01*
X133942331Y-111993796D01*
X134057546Y-111907546D01*
X134143796Y-111792331D01*
X134194091Y-111657483D01*
X134200500Y-111597873D01*
X134200500Y-111597845D01*
X134200678Y-111594548D01*
X134201817Y-111594609D01*
X134220185Y-111532058D01*
X134272989Y-111486303D01*
X134342147Y-111476359D01*
X134405703Y-111505384D01*
G37*
%TD.AperFunction*%
%TA.AperFunction,Conductor*%
G36*
X167138835Y-111562914D02*
G01*
X167194768Y-111604786D01*
X167219185Y-111670250D01*
X167219501Y-111679096D01*
X167219501Y-111797876D01*
X167225908Y-111857483D01*
X167276202Y-111992328D01*
X167276206Y-111992335D01*
X167362452Y-112107544D01*
X167362455Y-112107547D01*
X167477664Y-112193793D01*
X167477671Y-112193797D01*
X167612517Y-112244091D01*
X167612516Y-112244091D01*
X167619444Y-112244835D01*
X167672127Y-112250500D01*
X169467872Y-112250499D01*
X169527483Y-112244091D01*
X169662331Y-112193796D01*
X169777546Y-112107546D01*
X169863796Y-111992331D01*
X169912810Y-111860916D01*
X169954681Y-111804984D01*
X170020145Y-111780566D01*
X170088418Y-111795417D01*
X170116673Y-111816569D01*
X170230213Y-111930109D01*
X170402182Y-112055050D01*
X170402184Y-112055051D01*
X170581795Y-112146567D01*
X170632590Y-112194540D01*
X170649500Y-112257051D01*
X170649500Y-115776452D01*
X170629815Y-115843491D01*
X170598385Y-115876770D01*
X170470215Y-115969889D01*
X170356673Y-116083431D01*
X170295350Y-116116915D01*
X170225658Y-116111931D01*
X170169725Y-116070059D01*
X170152810Y-116039082D01*
X170103797Y-115907671D01*
X170103793Y-115907664D01*
X170017547Y-115792455D01*
X170017544Y-115792452D01*
X169902335Y-115706206D01*
X169902328Y-115706202D01*
X169767482Y-115655908D01*
X169767483Y-115655908D01*
X169707883Y-115649501D01*
X169707881Y-115649500D01*
X169707873Y-115649500D01*
X169707864Y-115649500D01*
X167912129Y-115649500D01*
X167912123Y-115649501D01*
X167852516Y-115655908D01*
X167717671Y-115706202D01*
X167717664Y-115706206D01*
X167602455Y-115792452D01*
X167602452Y-115792455D01*
X167516206Y-115907664D01*
X167516202Y-115907671D01*
X167465908Y-116042517D01*
X167459501Y-116102116D01*
X167459500Y-116102135D01*
X167459500Y-116275500D01*
X167439815Y-116342539D01*
X167387011Y-116388294D01*
X167335500Y-116399500D01*
X166929057Y-116399500D01*
X166770943Y-116399500D01*
X166618215Y-116440423D01*
X166618214Y-116440423D01*
X166618212Y-116440424D01*
X166618209Y-116440425D01*
X166568096Y-116469359D01*
X166568095Y-116469360D01*
X166524689Y-116494420D01*
X166481285Y-116519479D01*
X166481282Y-116519481D01*
X164519481Y-118481282D01*
X164519479Y-118481285D01*
X164469361Y-118568094D01*
X164469359Y-118568096D01*
X164440425Y-118618209D01*
X164440424Y-118618210D01*
X164440423Y-118618215D01*
X164399499Y-118770943D01*
X164399499Y-118770945D01*
X164399499Y-118939046D01*
X164399500Y-118939059D01*
X164399500Y-120299903D01*
X164379815Y-120366942D01*
X164363181Y-120387584D01*
X163587584Y-121163181D01*
X163526261Y-121196666D01*
X163499903Y-121199500D01*
X162191836Y-121199500D01*
X162124797Y-121179815D01*
X162081352Y-121131796D01*
X162047814Y-121065976D01*
X161918247Y-120887641D01*
X161918243Y-120887636D01*
X161762363Y-120731756D01*
X161762358Y-120731752D01*
X161622319Y-120630008D01*
X161579653Y-120574678D01*
X161573674Y-120505065D01*
X161606279Y-120443270D01*
X161622319Y-120429372D01*
X161762035Y-120327862D01*
X161762041Y-120327857D01*
X161917857Y-120172041D01*
X162047386Y-119993760D01*
X162147432Y-119797410D01*
X162215526Y-119587838D01*
X162215526Y-119587835D01*
X162227855Y-119510000D01*
X160983012Y-119510000D01*
X161015925Y-119452993D01*
X161050000Y-119325826D01*
X161050000Y-119194174D01*
X161015925Y-119067007D01*
X160983012Y-119010000D01*
X162227855Y-119010000D01*
X162215526Y-118932164D01*
X162215526Y-118932161D01*
X162147432Y-118722589D01*
X162047386Y-118526239D01*
X161917857Y-118347958D01*
X161762041Y-118192142D01*
X161622318Y-118090627D01*
X161579653Y-118035297D01*
X161573674Y-117965684D01*
X161606280Y-117903889D01*
X161622313Y-117889994D01*
X161762365Y-117788242D01*
X161918242Y-117632365D01*
X162047815Y-117454022D01*
X162081352Y-117388204D01*
X162129326Y-117337409D01*
X162191836Y-117320500D01*
X163343331Y-117320500D01*
X163343347Y-117320501D01*
X163350943Y-117320501D01*
X163509054Y-117320501D01*
X163509057Y-117320501D01*
X163661785Y-117279577D01*
X163711904Y-117250639D01*
X163798716Y-117200520D01*
X163910520Y-117088716D01*
X163910520Y-117088714D01*
X163920728Y-117078507D01*
X163920730Y-117078504D01*
X165508506Y-115490728D01*
X165508511Y-115490724D01*
X165518714Y-115480520D01*
X165518716Y-115480520D01*
X165630520Y-115368716D01*
X165709577Y-115231784D01*
X165750500Y-115079057D01*
X165750500Y-112900097D01*
X165770185Y-112833058D01*
X165786819Y-112812416D01*
X167007820Y-111591415D01*
X167069143Y-111557930D01*
X167138835Y-111562914D01*
G37*
%TD.AperFunction*%
%TA.AperFunction,Conductor*%
G36*
X169599504Y-79070185D02*
G01*
X169645259Y-79122989D01*
X169655823Y-79161898D01*
X169660001Y-79202797D01*
X169660001Y-79202799D01*
X169697750Y-79316716D01*
X169715186Y-79369334D01*
X169807288Y-79518656D01*
X169931344Y-79642712D01*
X170080666Y-79734814D01*
X170247203Y-79789999D01*
X170349991Y-79800500D01*
X170525500Y-79800499D01*
X170592539Y-79820183D01*
X170638294Y-79872987D01*
X170649500Y-79924499D01*
X170649500Y-103242947D01*
X170629815Y-103309986D01*
X170581795Y-103353432D01*
X170402180Y-103444951D01*
X170230215Y-103569889D01*
X170116673Y-103683431D01*
X170055350Y-103716915D01*
X169985658Y-103711931D01*
X169929725Y-103670059D01*
X169912810Y-103639082D01*
X169863797Y-103507671D01*
X169863793Y-103507664D01*
X169777547Y-103392455D01*
X169777544Y-103392452D01*
X169662335Y-103306206D01*
X169662328Y-103306202D01*
X169527482Y-103255908D01*
X169527483Y-103255908D01*
X169467883Y-103249501D01*
X169467881Y-103249500D01*
X169467873Y-103249500D01*
X169467864Y-103249500D01*
X167672129Y-103249500D01*
X167672123Y-103249501D01*
X167612516Y-103255908D01*
X167477671Y-103306202D01*
X167477664Y-103306206D01*
X167362455Y-103392452D01*
X167362452Y-103392455D01*
X167276206Y-103507664D01*
X167276202Y-103507671D01*
X167225908Y-103642517D01*
X167219501Y-103702116D01*
X167219500Y-103702135D01*
X167219500Y-103968089D01*
X167199815Y-104035128D01*
X167157500Y-104075476D01*
X167081287Y-104119477D01*
X167081282Y-104119481D01*
X163969481Y-107231282D01*
X163969479Y-107231285D01*
X163919361Y-107318094D01*
X163919359Y-107318096D01*
X163890425Y-107368209D01*
X163890424Y-107368210D01*
X163890423Y-107368215D01*
X163849499Y-107520943D01*
X163849499Y-107520945D01*
X163849499Y-107689046D01*
X163849500Y-107689059D01*
X163849500Y-111549902D01*
X163829815Y-111616941D01*
X163813181Y-111637583D01*
X162132370Y-113318393D01*
X162071047Y-113351878D01*
X162001355Y-113346894D01*
X161945422Y-113305022D01*
X161944371Y-113303597D01*
X161918247Y-113267641D01*
X161918243Y-113267636D01*
X161762363Y-113111756D01*
X161762358Y-113111752D01*
X161622745Y-113010318D01*
X161580079Y-112954989D01*
X161574100Y-112885375D01*
X161606705Y-112823580D01*
X161622745Y-112809682D01*
X161762358Y-112708247D01*
X161762356Y-112708247D01*
X161762365Y-112708242D01*
X161918242Y-112552365D01*
X162047815Y-112374022D01*
X162147895Y-112177606D01*
X162216015Y-111967951D01*
X162250500Y-111750222D01*
X162250500Y-111529778D01*
X162216015Y-111312049D01*
X162147895Y-111102394D01*
X162147895Y-111102393D01*
X162099292Y-111007007D01*
X162047815Y-110905978D01*
X161975356Y-110806246D01*
X161918247Y-110727641D01*
X161918243Y-110727636D01*
X161762363Y-110571756D01*
X161762358Y-110571752D01*
X161622745Y-110470318D01*
X161580079Y-110414989D01*
X161574100Y-110345375D01*
X161606705Y-110283580D01*
X161622745Y-110269682D01*
X161762358Y-110168247D01*
X161762366Y-110168241D01*
X161831108Y-110099499D01*
X161918242Y-110012365D01*
X162047815Y-109834022D01*
X162147895Y-109637606D01*
X162216015Y-109427951D01*
X162250500Y-109210222D01*
X162250500Y-108989778D01*
X162216015Y-108772049D01*
X162147895Y-108562394D01*
X162147895Y-108562393D01*
X162090676Y-108450097D01*
X162047815Y-108365978D01*
X162031260Y-108343192D01*
X161918247Y-108187641D01*
X161918243Y-108187636D01*
X161762363Y-108031756D01*
X161762358Y-108031752D01*
X161622319Y-107930008D01*
X161579653Y-107874678D01*
X161573674Y-107805065D01*
X161606279Y-107743270D01*
X161622319Y-107729372D01*
X161762035Y-107627862D01*
X161762041Y-107627857D01*
X161917857Y-107472041D01*
X162047386Y-107293760D01*
X162147432Y-107097410D01*
X162215526Y-106887838D01*
X162215526Y-106887835D01*
X162227855Y-106810000D01*
X160983012Y-106810000D01*
X161015925Y-106752993D01*
X161050000Y-106625826D01*
X161050000Y-106494174D01*
X161015925Y-106367007D01*
X160983012Y-106310000D01*
X162227855Y-106310000D01*
X162215526Y-106232164D01*
X162215526Y-106232161D01*
X162147432Y-106022589D01*
X162047386Y-105826239D01*
X161917857Y-105647958D01*
X161762041Y-105492142D01*
X161622318Y-105390627D01*
X161579653Y-105335297D01*
X161573674Y-105265684D01*
X161606280Y-105203889D01*
X161622313Y-105189994D01*
X161762365Y-105088242D01*
X161918242Y-104932365D01*
X162047815Y-104754022D01*
X162147895Y-104557606D01*
X162216015Y-104347951D01*
X162250500Y-104130222D01*
X162250500Y-103909778D01*
X162216015Y-103692049D01*
X162156106Y-103507664D01*
X162147896Y-103482396D01*
X162147895Y-103482393D01*
X162083596Y-103356202D01*
X162047815Y-103285978D01*
X162016551Y-103242947D01*
X161918247Y-103107641D01*
X161918243Y-103107636D01*
X161762363Y-102951756D01*
X161762358Y-102951752D01*
X161622745Y-102850318D01*
X161580079Y-102794989D01*
X161574100Y-102725375D01*
X161606705Y-102663580D01*
X161622745Y-102649682D01*
X161762358Y-102548247D01*
X161762356Y-102548247D01*
X161762365Y-102548242D01*
X161918242Y-102392365D01*
X162047815Y-102214022D01*
X162147895Y-102017606D01*
X162216015Y-101807951D01*
X162250500Y-101590222D01*
X162250500Y-101369778D01*
X162216015Y-101152049D01*
X162147895Y-100942394D01*
X162147895Y-100942393D01*
X162113237Y-100874375D01*
X162047815Y-100745978D01*
X162031260Y-100723192D01*
X161918247Y-100567641D01*
X161918243Y-100567636D01*
X161762363Y-100411756D01*
X161762358Y-100411752D01*
X161622745Y-100310318D01*
X161580079Y-100254989D01*
X161574100Y-100185375D01*
X161606705Y-100123580D01*
X161622745Y-100109682D01*
X161762358Y-100008247D01*
X161762356Y-100008247D01*
X161762365Y-100008242D01*
X161918242Y-99852365D01*
X162047815Y-99674022D01*
X162147895Y-99477606D01*
X162216015Y-99267951D01*
X162250500Y-99050222D01*
X162250500Y-98829778D01*
X162216015Y-98612049D01*
X162147895Y-98402394D01*
X162147895Y-98402393D01*
X162068925Y-98247409D01*
X162047815Y-98205978D01*
X162028374Y-98179219D01*
X161918247Y-98027641D01*
X161918243Y-98027636D01*
X161762363Y-97871756D01*
X161762358Y-97871752D01*
X161622745Y-97770318D01*
X161580079Y-97714989D01*
X161574100Y-97645375D01*
X161606705Y-97583580D01*
X161622745Y-97569682D01*
X161762358Y-97468247D01*
X161762356Y-97468247D01*
X161762365Y-97468242D01*
X161918242Y-97312365D01*
X162047815Y-97134022D01*
X162147895Y-96937606D01*
X162216015Y-96727951D01*
X162250500Y-96510222D01*
X162250500Y-96289778D01*
X162216015Y-96072049D01*
X162147895Y-95862394D01*
X162147895Y-95862393D01*
X162113237Y-95794375D01*
X162047815Y-95665978D01*
X161958698Y-95543318D01*
X161918247Y-95487641D01*
X161918243Y-95487636D01*
X161762363Y-95331756D01*
X161762358Y-95331752D01*
X161622745Y-95230318D01*
X161580079Y-95174989D01*
X161574100Y-95105375D01*
X161606705Y-95043580D01*
X161622745Y-95029682D01*
X161762358Y-94928247D01*
X161762356Y-94928247D01*
X161762365Y-94928242D01*
X161918242Y-94772365D01*
X162047815Y-94594022D01*
X162147895Y-94397606D01*
X162216015Y-94187951D01*
X162250500Y-93970222D01*
X162250500Y-93749778D01*
X162216015Y-93532049D01*
X162158529Y-93355122D01*
X162147896Y-93322396D01*
X162147895Y-93322393D01*
X162113237Y-93254375D01*
X162047815Y-93125978D01*
X161943634Y-92982584D01*
X161918247Y-92947641D01*
X161918243Y-92947636D01*
X161762363Y-92791756D01*
X161762358Y-92791752D01*
X161622745Y-92690318D01*
X161580079Y-92634989D01*
X161574100Y-92565375D01*
X161606705Y-92503580D01*
X161622745Y-92489682D01*
X161762358Y-92388247D01*
X161762356Y-92388247D01*
X161762365Y-92388242D01*
X161918242Y-92232365D01*
X162047815Y-92054022D01*
X162147895Y-91857606D01*
X162216015Y-91647951D01*
X162250500Y-91430222D01*
X162250500Y-91209778D01*
X162216015Y-90992049D01*
X162147895Y-90782394D01*
X162147895Y-90782393D01*
X162113237Y-90714375D01*
X162047815Y-90585978D01*
X162031260Y-90563192D01*
X161918247Y-90407641D01*
X161918243Y-90407636D01*
X161762363Y-90251756D01*
X161762358Y-90251752D01*
X161622745Y-90150318D01*
X161580079Y-90094989D01*
X161574100Y-90025375D01*
X161606705Y-89963580D01*
X161622745Y-89949682D01*
X161762358Y-89848247D01*
X161762356Y-89848247D01*
X161762365Y-89848242D01*
X161918242Y-89692365D01*
X162047815Y-89514022D01*
X162147895Y-89317606D01*
X162216015Y-89107951D01*
X162250500Y-88890222D01*
X162250500Y-88669778D01*
X162216015Y-88452049D01*
X162147895Y-88242394D01*
X162147895Y-88242393D01*
X162101505Y-88151349D01*
X162047815Y-88045978D01*
X161991910Y-87969031D01*
X161918247Y-87867641D01*
X161918243Y-87867636D01*
X161762363Y-87711756D01*
X161762358Y-87711752D01*
X161622745Y-87610318D01*
X161580079Y-87554989D01*
X161574100Y-87485375D01*
X161606705Y-87423580D01*
X161622745Y-87409682D01*
X161762358Y-87308247D01*
X161762356Y-87308247D01*
X161762365Y-87308242D01*
X161918242Y-87152365D01*
X162047815Y-86974022D01*
X162147895Y-86777606D01*
X162216015Y-86567951D01*
X162250500Y-86350222D01*
X162250500Y-86129778D01*
X162216015Y-85912049D01*
X162147895Y-85702394D01*
X162147895Y-85702393D01*
X162081351Y-85571796D01*
X162047815Y-85505978D01*
X161944756Y-85364128D01*
X161918247Y-85327641D01*
X161918243Y-85327636D01*
X161762363Y-85171756D01*
X161762358Y-85171752D01*
X161622745Y-85070318D01*
X161580079Y-85014989D01*
X161574100Y-84945375D01*
X161606705Y-84883580D01*
X161622745Y-84869682D01*
X161762358Y-84768247D01*
X161762356Y-84768247D01*
X161762365Y-84768242D01*
X161918242Y-84612365D01*
X162047815Y-84434022D01*
X162147895Y-84237606D01*
X162216015Y-84027951D01*
X162250500Y-83810222D01*
X162250500Y-83589778D01*
X162216015Y-83372049D01*
X162181955Y-83267221D01*
X162147896Y-83162396D01*
X162147895Y-83162393D01*
X162073948Y-83017267D01*
X162047815Y-82965978D01*
X162031260Y-82943192D01*
X161918247Y-82787641D01*
X161918243Y-82787636D01*
X161762363Y-82631756D01*
X161762358Y-82631752D01*
X161622319Y-82530008D01*
X161579653Y-82474678D01*
X161573674Y-82405065D01*
X161606279Y-82343270D01*
X161622319Y-82329372D01*
X161762035Y-82227862D01*
X161762041Y-82227857D01*
X161917857Y-82072041D01*
X162047386Y-81893760D01*
X162147432Y-81697410D01*
X162215526Y-81487838D01*
X162215526Y-81487835D01*
X162227855Y-81410000D01*
X160983012Y-81410000D01*
X161015925Y-81352993D01*
X161050000Y-81225826D01*
X161050000Y-81094174D01*
X161015925Y-80967007D01*
X160983012Y-80910000D01*
X162227855Y-80910000D01*
X162215526Y-80832164D01*
X162215526Y-80832161D01*
X162147432Y-80622589D01*
X162047386Y-80426239D01*
X161917857Y-80247958D01*
X161762041Y-80092142D01*
X161622318Y-79990627D01*
X161579653Y-79935297D01*
X161573674Y-79865684D01*
X161606280Y-79803889D01*
X161622313Y-79789994D01*
X161762365Y-79688242D01*
X161918242Y-79532365D01*
X162047815Y-79354022D01*
X162147895Y-79157606D01*
X162154855Y-79136183D01*
X162194292Y-79078508D01*
X162258650Y-79051308D01*
X162272787Y-79050500D01*
X169532465Y-79050500D01*
X169599504Y-79070185D01*
G37*
%TD.AperFunction*%
%TA.AperFunction,Conductor*%
G36*
X136666942Y-75170185D02*
G01*
X136687584Y-75186819D01*
X138713181Y-77212416D01*
X138746666Y-77273739D01*
X138749500Y-77300097D01*
X138749500Y-82113330D01*
X138749499Y-82113348D01*
X138749499Y-82279054D01*
X138749498Y-82279054D01*
X138790423Y-82431785D01*
X138819358Y-82481900D01*
X138819359Y-82481904D01*
X138819360Y-82481904D01*
X138839108Y-82516110D01*
X138869479Y-82568714D01*
X138869481Y-82568717D01*
X138988349Y-82687585D01*
X138988355Y-82687590D01*
X140365139Y-84064374D01*
X140365149Y-84064385D01*
X140369479Y-84068715D01*
X140369480Y-84068716D01*
X140481284Y-84180520D01*
X140481286Y-84180521D01*
X140481290Y-84180524D01*
X140618209Y-84259573D01*
X140618216Y-84259577D01*
X140730019Y-84289534D01*
X140770942Y-84300500D01*
X140770943Y-84300500D01*
X141128164Y-84300500D01*
X141195203Y-84320185D01*
X141238648Y-84368204D01*
X141272185Y-84434023D01*
X141401752Y-84612358D01*
X141401756Y-84612363D01*
X141557636Y-84768243D01*
X141557641Y-84768247D01*
X141697254Y-84869682D01*
X141739920Y-84925012D01*
X141745899Y-84994625D01*
X141713293Y-85056420D01*
X141697254Y-85070318D01*
X141557641Y-85171752D01*
X141557636Y-85171756D01*
X141401756Y-85327636D01*
X141401752Y-85327641D01*
X141272185Y-85505976D01*
X141238648Y-85571796D01*
X141190674Y-85622591D01*
X141128164Y-85639500D01*
X140039057Y-85639500D01*
X139880943Y-85639500D01*
X139728215Y-85680423D01*
X139698202Y-85697751D01*
X139690159Y-85702395D01*
X139690158Y-85702394D01*
X139591287Y-85759477D01*
X139591282Y-85759481D01*
X138219481Y-87131282D01*
X138219479Y-87131285D01*
X138207313Y-87152358D01*
X138178623Y-87202051D01*
X138140423Y-87268215D01*
X138099499Y-87420943D01*
X138099499Y-87420945D01*
X138099499Y-87589046D01*
X138099500Y-87589059D01*
X138099500Y-96399902D01*
X138079815Y-96466941D01*
X138063181Y-96487583D01*
X137557584Y-96993181D01*
X137496261Y-97026666D01*
X137469903Y-97029500D01*
X136479602Y-97029500D01*
X136412563Y-97009815D01*
X136369117Y-96961795D01*
X136362284Y-96948385D01*
X136241971Y-96782786D01*
X136097213Y-96638028D01*
X135931613Y-96517715D01*
X135931612Y-96517714D01*
X135931610Y-96517713D01*
X135872477Y-96487583D01*
X135749223Y-96424781D01*
X135554534Y-96361522D01*
X135379995Y-96333878D01*
X135352352Y-96329500D01*
X135147648Y-96329500D01*
X135123329Y-96333351D01*
X134945465Y-96361522D01*
X134750776Y-96424781D01*
X134568386Y-96517715D01*
X134402786Y-96638028D01*
X134258028Y-96782786D01*
X134137713Y-96948388D01*
X134105407Y-97011794D01*
X134057433Y-97062591D01*
X133994922Y-97079500D01*
X131329602Y-97079500D01*
X131262563Y-97059815D01*
X131219117Y-97011795D01*
X131212287Y-96998390D01*
X131212285Y-96998387D01*
X131212284Y-96998385D01*
X131091971Y-96832786D01*
X130947213Y-96688028D01*
X130781613Y-96567715D01*
X130781612Y-96567714D01*
X130781610Y-96567713D01*
X130724653Y-96538691D01*
X130599223Y-96474781D01*
X130404534Y-96411522D01*
X130229995Y-96383878D01*
X130202352Y-96379500D01*
X129997648Y-96379500D01*
X129973329Y-96383351D01*
X129795465Y-96411522D01*
X129600776Y-96474781D01*
X129418386Y-96567715D01*
X129252786Y-96688028D01*
X129108028Y-96832786D01*
X128987715Y-96998386D01*
X128894781Y-97180776D01*
X128831522Y-97375465D01*
X128799500Y-97577648D01*
X128799500Y-97782351D01*
X128831522Y-97984534D01*
X128894781Y-98179223D01*
X128987715Y-98361613D01*
X129108028Y-98527213D01*
X129252786Y-98671971D01*
X129349566Y-98742284D01*
X129418390Y-98792287D01*
X129502647Y-98835218D01*
X129600776Y-98885218D01*
X129600778Y-98885218D01*
X129600781Y-98885220D01*
X129704459Y-98918907D01*
X129795465Y-98948477D01*
X129896557Y-98964488D01*
X129997648Y-98980500D01*
X129997649Y-98980500D01*
X130202351Y-98980500D01*
X130202352Y-98980500D01*
X130404534Y-98948477D01*
X130599219Y-98885220D01*
X130781610Y-98792287D01*
X130874590Y-98724732D01*
X130947213Y-98671971D01*
X130947215Y-98671968D01*
X130947219Y-98671966D01*
X131091966Y-98527219D01*
X131091968Y-98527215D01*
X131091971Y-98527213D01*
X131196913Y-98382770D01*
X131212287Y-98361610D01*
X131219117Y-98348204D01*
X131267091Y-98297409D01*
X131329602Y-98280500D01*
X134051929Y-98280500D01*
X134118968Y-98300185D01*
X134152245Y-98331613D01*
X134220423Y-98425451D01*
X134258034Y-98477219D01*
X134402786Y-98621971D01*
X134557749Y-98734556D01*
X134568390Y-98742287D01*
X134684607Y-98801503D01*
X134750776Y-98835218D01*
X134750778Y-98835218D01*
X134750781Y-98835220D01*
X134855137Y-98869127D01*
X134945465Y-98898477D01*
X135046557Y-98914488D01*
X135147648Y-98930500D01*
X135147649Y-98930500D01*
X135352351Y-98930500D01*
X135352352Y-98930500D01*
X135554534Y-98898477D01*
X135749219Y-98835220D01*
X135931610Y-98742287D01*
X136024590Y-98674732D01*
X136097213Y-98621971D01*
X136097215Y-98621968D01*
X136097219Y-98621966D01*
X136241966Y-98477219D01*
X136241968Y-98477215D01*
X136241971Y-98477213D01*
X136362284Y-98311614D01*
X136362283Y-98311614D01*
X136362287Y-98311610D01*
X136369117Y-98298204D01*
X136417091Y-98247409D01*
X136479602Y-98230500D01*
X137683331Y-98230500D01*
X137683347Y-98230501D01*
X137690943Y-98230501D01*
X137849054Y-98230501D01*
X137849057Y-98230501D01*
X138001785Y-98189577D01*
X138019725Y-98179219D01*
X138052091Y-98160533D01*
X138052102Y-98160525D01*
X138052114Y-98160519D01*
X138138716Y-98110520D01*
X138250520Y-97998716D01*
X138250520Y-97998714D01*
X138260724Y-97988511D01*
X138260727Y-97988506D01*
X139180520Y-97068716D01*
X139259577Y-96931784D01*
X139300501Y-96779057D01*
X139300501Y-96620942D01*
X139300501Y-96613347D01*
X139300500Y-96613329D01*
X139300500Y-87800097D01*
X139320185Y-87733058D01*
X139336819Y-87712416D01*
X140172416Y-86876819D01*
X140233739Y-86843334D01*
X140260097Y-86840500D01*
X141128164Y-86840500D01*
X141195203Y-86860185D01*
X141238648Y-86908204D01*
X141272185Y-86974023D01*
X141401752Y-87152358D01*
X141401756Y-87152363D01*
X141557636Y-87308243D01*
X141557641Y-87308247D01*
X141697254Y-87409682D01*
X141739920Y-87465012D01*
X141745899Y-87534625D01*
X141713293Y-87596420D01*
X141697254Y-87610318D01*
X141557641Y-87711752D01*
X141557636Y-87711756D01*
X141401756Y-87867636D01*
X141401752Y-87867641D01*
X141272187Y-88045974D01*
X141172104Y-88242393D01*
X141172103Y-88242396D01*
X141103985Y-88452047D01*
X141069500Y-88669778D01*
X141069500Y-88890221D01*
X141103985Y-89107952D01*
X141172103Y-89317603D01*
X141172104Y-89317606D01*
X141272187Y-89514025D01*
X141401752Y-89692358D01*
X141401756Y-89692363D01*
X141557636Y-89848243D01*
X141557641Y-89848247D01*
X141697254Y-89949682D01*
X141739920Y-90005012D01*
X141745899Y-90074625D01*
X141713293Y-90136420D01*
X141697254Y-90150318D01*
X141557641Y-90251752D01*
X141557636Y-90251756D01*
X141401756Y-90407636D01*
X141401752Y-90407641D01*
X141272187Y-90585974D01*
X141172104Y-90782393D01*
X141172103Y-90782396D01*
X141103985Y-90992047D01*
X141069500Y-91209778D01*
X141069500Y-91430221D01*
X141103985Y-91647952D01*
X141172103Y-91857603D01*
X141172104Y-91857606D01*
X141272187Y-92054025D01*
X141401752Y-92232358D01*
X141401756Y-92232363D01*
X141557636Y-92388243D01*
X141557641Y-92388247D01*
X141697680Y-92489991D01*
X141740346Y-92545320D01*
X141746325Y-92614934D01*
X141713720Y-92676729D01*
X141697681Y-92690627D01*
X141557959Y-92792142D01*
X141557958Y-92792142D01*
X141402142Y-92947958D01*
X141272613Y-93126239D01*
X141172567Y-93322589D01*
X141104473Y-93532161D01*
X141104473Y-93532164D01*
X141092145Y-93610000D01*
X142336988Y-93610000D01*
X142304075Y-93667007D01*
X142270000Y-93794174D01*
X142270000Y-93925826D01*
X142304075Y-94052993D01*
X142336988Y-94110000D01*
X141092145Y-94110000D01*
X141104473Y-94187835D01*
X141104473Y-94187838D01*
X141172567Y-94397410D01*
X141272613Y-94593760D01*
X141402142Y-94772041D01*
X141557958Y-94927857D01*
X141557964Y-94927862D01*
X141697680Y-95029372D01*
X141740346Y-95084702D01*
X141746325Y-95154315D01*
X141713719Y-95216110D01*
X141697681Y-95230008D01*
X141557636Y-95331756D01*
X141401756Y-95487636D01*
X141401752Y-95487641D01*
X141272187Y-95665974D01*
X141172104Y-95862393D01*
X141172103Y-95862396D01*
X141103985Y-96072047D01*
X141089826Y-96161442D01*
X141069500Y-96289778D01*
X141069500Y-96510222D01*
X141070863Y-96518825D01*
X141103985Y-96727952D01*
X141172103Y-96937603D01*
X141172104Y-96937606D01*
X141272187Y-97134025D01*
X141401752Y-97312358D01*
X141401756Y-97312363D01*
X141557636Y-97468243D01*
X141557641Y-97468247D01*
X141697254Y-97569682D01*
X141739920Y-97625012D01*
X141745899Y-97694625D01*
X141713293Y-97756420D01*
X141697254Y-97770318D01*
X141557641Y-97871752D01*
X141557636Y-97871756D01*
X141401756Y-98027636D01*
X141401752Y-98027641D01*
X141272187Y-98205974D01*
X141172104Y-98402393D01*
X141172103Y-98402396D01*
X141103985Y-98612047D01*
X141069500Y-98829778D01*
X141069500Y-99050221D01*
X141103985Y-99267952D01*
X141172103Y-99477603D01*
X141172104Y-99477606D01*
X141272187Y-99674025D01*
X141401752Y-99852358D01*
X141401756Y-99852363D01*
X141557636Y-100008243D01*
X141557641Y-100008247D01*
X141697254Y-100109682D01*
X141739920Y-100165012D01*
X141745899Y-100234625D01*
X141713293Y-100296420D01*
X141697254Y-100310318D01*
X141557641Y-100411752D01*
X141557636Y-100411756D01*
X141401756Y-100567636D01*
X141401752Y-100567641D01*
X141272187Y-100745974D01*
X141172104Y-100942393D01*
X141172103Y-100942396D01*
X141103985Y-101152047D01*
X141069500Y-101369778D01*
X141069500Y-101590221D01*
X141103985Y-101807952D01*
X141172103Y-102017603D01*
X141172104Y-102017606D01*
X141272187Y-102214025D01*
X141401752Y-102392358D01*
X141401756Y-102392363D01*
X141557636Y-102548243D01*
X141557641Y-102548247D01*
X141697254Y-102649682D01*
X141739920Y-102705012D01*
X141745899Y-102774625D01*
X141713293Y-102836420D01*
X141697254Y-102850318D01*
X141557641Y-102951752D01*
X141557636Y-102951756D01*
X141401756Y-103107636D01*
X141401752Y-103107641D01*
X141272187Y-103285974D01*
X141172104Y-103482393D01*
X141172103Y-103482396D01*
X141103985Y-103692047D01*
X141091606Y-103770208D01*
X141069500Y-103909778D01*
X141069500Y-104130222D01*
X141069747Y-104131782D01*
X141103985Y-104347952D01*
X141172103Y-104557603D01*
X141172104Y-104557606D01*
X141272187Y-104754025D01*
X141401752Y-104932358D01*
X141401756Y-104932363D01*
X141557636Y-105088243D01*
X141557641Y-105088247D01*
X141697680Y-105189991D01*
X141740346Y-105245320D01*
X141746325Y-105314934D01*
X141713720Y-105376729D01*
X141697681Y-105390627D01*
X141557959Y-105492142D01*
X141557958Y-105492142D01*
X141402142Y-105647958D01*
X141272613Y-105826239D01*
X141172567Y-106022589D01*
X141104473Y-106232161D01*
X141104473Y-106232164D01*
X141092145Y-106310000D01*
X142336988Y-106310000D01*
X142304075Y-106367007D01*
X142270000Y-106494174D01*
X142270000Y-106625826D01*
X142304075Y-106752993D01*
X142336988Y-106810000D01*
X141092145Y-106810000D01*
X141104473Y-106887835D01*
X141104473Y-106887838D01*
X141172567Y-107097410D01*
X141272613Y-107293760D01*
X141402142Y-107472041D01*
X141557958Y-107627857D01*
X141557964Y-107627862D01*
X141697680Y-107729372D01*
X141740346Y-107784702D01*
X141746325Y-107854315D01*
X141713719Y-107916110D01*
X141697681Y-107930008D01*
X141557636Y-108031756D01*
X141401756Y-108187636D01*
X141401752Y-108187641D01*
X141272187Y-108365974D01*
X141172104Y-108562393D01*
X141172103Y-108562396D01*
X141103985Y-108772047D01*
X141069500Y-108989778D01*
X141069500Y-109210221D01*
X141103985Y-109427952D01*
X141172103Y-109637603D01*
X141172104Y-109637606D01*
X141227019Y-109745380D01*
X141265146Y-109820208D01*
X141272187Y-109834025D01*
X141401752Y-110012358D01*
X141401756Y-110012363D01*
X141557634Y-110168241D01*
X141557641Y-110168247D01*
X141697254Y-110269682D01*
X141739920Y-110325012D01*
X141745899Y-110394625D01*
X141713293Y-110456420D01*
X141697254Y-110470318D01*
X141557641Y-110571752D01*
X141557636Y-110571756D01*
X141401756Y-110727636D01*
X141401752Y-110727641D01*
X141272187Y-110905974D01*
X141172104Y-111102393D01*
X141172103Y-111102396D01*
X141103985Y-111312047D01*
X141087139Y-111418412D01*
X141069500Y-111529778D01*
X141069500Y-111750222D01*
X141079803Y-111815270D01*
X141103985Y-111967952D01*
X141172103Y-112177603D01*
X141172104Y-112177606D01*
X141272187Y-112374025D01*
X141401752Y-112552358D01*
X141401756Y-112552363D01*
X141557636Y-112708243D01*
X141557641Y-112708247D01*
X141697255Y-112809682D01*
X141739921Y-112865011D01*
X141745900Y-112934625D01*
X141713295Y-112996420D01*
X141697255Y-113010318D01*
X141616300Y-113069135D01*
X141550494Y-113092615D01*
X141482440Y-113076789D01*
X141455734Y-113056498D01*
X139886819Y-111487583D01*
X139853334Y-111426260D01*
X139850500Y-111399902D01*
X139850500Y-108070945D01*
X139850500Y-108070943D01*
X139809577Y-107918216D01*
X139772684Y-107854315D01*
X139730524Y-107781290D01*
X139730521Y-107781286D01*
X139730520Y-107781284D01*
X139618716Y-107669480D01*
X139618715Y-107669479D01*
X139614385Y-107665149D01*
X139614374Y-107665139D01*
X136237590Y-104288355D01*
X136237588Y-104288352D01*
X136118717Y-104169481D01*
X136118716Y-104169480D01*
X136030486Y-104118541D01*
X135981785Y-104090423D01*
X135829057Y-104049499D01*
X135670943Y-104049499D01*
X135663347Y-104049499D01*
X135663331Y-104049500D01*
X134314499Y-104049500D01*
X134247460Y-104029815D01*
X134201705Y-103977011D01*
X134190499Y-103925500D01*
X134190499Y-103752129D01*
X134190498Y-103752123D01*
X134188605Y-103734516D01*
X134184091Y-103692517D01*
X134183916Y-103692049D01*
X134133797Y-103557671D01*
X134133793Y-103557664D01*
X134047547Y-103442455D01*
X134047544Y-103442452D01*
X133932335Y-103356206D01*
X133932328Y-103356202D01*
X133797482Y-103305908D01*
X133797483Y-103305908D01*
X133737883Y-103299501D01*
X133737881Y-103299500D01*
X133737873Y-103299500D01*
X133737864Y-103299500D01*
X131942129Y-103299500D01*
X131942123Y-103299501D01*
X131882516Y-103305908D01*
X131747671Y-103356202D01*
X131747664Y-103356206D01*
X131632455Y-103442452D01*
X131632452Y-103442455D01*
X131546206Y-103557664D01*
X131546203Y-103557669D01*
X131497189Y-103689083D01*
X131455317Y-103745016D01*
X131389853Y-103769433D01*
X131321580Y-103754581D01*
X131293326Y-103733430D01*
X131186819Y-103626923D01*
X131153334Y-103565600D01*
X131150500Y-103539242D01*
X131150500Y-101776081D01*
X131144763Y-101747242D01*
X131144763Y-101747240D01*
X131121660Y-101631095D01*
X131121659Y-101631088D01*
X131065084Y-101494506D01*
X131065084Y-101494505D01*
X131032186Y-101445270D01*
X131030802Y-101443198D01*
X130982956Y-101371589D01*
X130982952Y-101371584D01*
X128036819Y-98425451D01*
X128003334Y-98364128D01*
X128000500Y-98337770D01*
X128000500Y-86576079D01*
X127971659Y-86431092D01*
X127971658Y-86431091D01*
X127971658Y-86431087D01*
X127954856Y-86390523D01*
X127915086Y-86294509D01*
X127915085Y-86294507D01*
X127882186Y-86245270D01*
X127882185Y-86245268D01*
X127832956Y-86171589D01*
X127832952Y-86171584D01*
X127086819Y-85425451D01*
X127053334Y-85364128D01*
X127050500Y-85337770D01*
X127050500Y-79337220D01*
X127070185Y-79270181D01*
X127101614Y-79236902D01*
X127179792Y-79180104D01*
X127330104Y-79029792D01*
X127330106Y-79029788D01*
X127330109Y-79029786D01*
X127455048Y-78857820D01*
X127455047Y-78857820D01*
X127455051Y-78857816D01*
X127459514Y-78849054D01*
X127507488Y-78798259D01*
X127575308Y-78781463D01*
X127641444Y-78803999D01*
X127680486Y-78849056D01*
X127684951Y-78857820D01*
X127809890Y-79029786D01*
X127960213Y-79180109D01*
X128132179Y-79305048D01*
X128132181Y-79305049D01*
X128132184Y-79305051D01*
X128321588Y-79401557D01*
X128523757Y-79467246D01*
X128733713Y-79500500D01*
X128733714Y-79500500D01*
X128946286Y-79500500D01*
X128946287Y-79500500D01*
X129156243Y-79467246D01*
X129358412Y-79401557D01*
X129547816Y-79305051D01*
X129634478Y-79242088D01*
X129719786Y-79180109D01*
X129719788Y-79180106D01*
X129719792Y-79180104D01*
X129870104Y-79029792D01*
X129870106Y-79029788D01*
X129870109Y-79029786D01*
X129995048Y-78857820D01*
X129995047Y-78857820D01*
X129995051Y-78857816D01*
X129999514Y-78849054D01*
X130047488Y-78798259D01*
X130115308Y-78781463D01*
X130181444Y-78803999D01*
X130220486Y-78849056D01*
X130224951Y-78857820D01*
X130349890Y-79029786D01*
X130349896Y-79029792D01*
X130500208Y-79180104D01*
X130578384Y-79236902D01*
X130621051Y-79292231D01*
X130629500Y-79337220D01*
X130629500Y-82657769D01*
X130609815Y-82724808D01*
X130593181Y-82745450D01*
X129517050Y-83821580D01*
X129517044Y-83821588D01*
X129467812Y-83895268D01*
X129467813Y-83895269D01*
X129434921Y-83944496D01*
X129434914Y-83944508D01*
X129378342Y-84081086D01*
X129378340Y-84081092D01*
X129349500Y-84226079D01*
X129349500Y-86394582D01*
X129329815Y-86461621D01*
X129298385Y-86494900D01*
X129252787Y-86528028D01*
X129252782Y-86528032D01*
X129108028Y-86672786D01*
X128987715Y-86838386D01*
X128894781Y-87020776D01*
X128831522Y-87215465D01*
X128815662Y-87315606D01*
X128799500Y-87417648D01*
X128799500Y-87622352D01*
X128803878Y-87649995D01*
X128831522Y-87824534D01*
X128894781Y-88019223D01*
X128908412Y-88045974D01*
X128984814Y-88195921D01*
X128987715Y-88201613D01*
X129108028Y-88367213D01*
X129252786Y-88511971D01*
X129348981Y-88581859D01*
X129418390Y-88632287D01*
X129534607Y-88691503D01*
X129600776Y-88725218D01*
X129600778Y-88725218D01*
X129600781Y-88725220D01*
X129705137Y-88759127D01*
X129795465Y-88788477D01*
X129896557Y-88804488D01*
X129997648Y-88820500D01*
X129997649Y-88820500D01*
X130202351Y-88820500D01*
X130202352Y-88820500D01*
X130404534Y-88788477D01*
X130599219Y-88725220D01*
X130781610Y-88632287D01*
X130874590Y-88564732D01*
X130947213Y-88511971D01*
X130947215Y-88511968D01*
X130947219Y-88511966D01*
X131091966Y-88367219D01*
X131091968Y-88367215D01*
X131091971Y-88367213D01*
X131182654Y-88242396D01*
X131212287Y-88201610D01*
X131305220Y-88019219D01*
X131368477Y-87824534D01*
X131400500Y-87622352D01*
X131400500Y-87417648D01*
X131392586Y-87367682D01*
X133950000Y-87367682D01*
X133950000Y-87572317D01*
X133982009Y-87774417D01*
X134045244Y-87969031D01*
X134138141Y-88151350D01*
X134138147Y-88151359D01*
X134170523Y-88195921D01*
X134170524Y-88195922D01*
X134850000Y-87516446D01*
X134850000Y-87522661D01*
X134877259Y-87624394D01*
X134929920Y-87715606D01*
X135004394Y-87790080D01*
X135095606Y-87842741D01*
X135197339Y-87870000D01*
X135203553Y-87870000D01*
X134524076Y-88549474D01*
X134568650Y-88581859D01*
X134750968Y-88674755D01*
X134945582Y-88737990D01*
X135147683Y-88770000D01*
X135352317Y-88770000D01*
X135554417Y-88737990D01*
X135749031Y-88674755D01*
X135931349Y-88581859D01*
X135975921Y-88549474D01*
X135296447Y-87870000D01*
X135302661Y-87870000D01*
X135404394Y-87842741D01*
X135495606Y-87790080D01*
X135570080Y-87715606D01*
X135622741Y-87624394D01*
X135650000Y-87522661D01*
X135650000Y-87516448D01*
X136329474Y-88195922D01*
X136329474Y-88195921D01*
X136361859Y-88151349D01*
X136454755Y-87969031D01*
X136517990Y-87774417D01*
X136550000Y-87572317D01*
X136550000Y-87367682D01*
X136517990Y-87165582D01*
X136454755Y-86970968D01*
X136361859Y-86788650D01*
X136329474Y-86744077D01*
X136329474Y-86744076D01*
X135650000Y-87423551D01*
X135650000Y-87417339D01*
X135622741Y-87315606D01*
X135570080Y-87224394D01*
X135495606Y-87149920D01*
X135404394Y-87097259D01*
X135302661Y-87070000D01*
X135296446Y-87070000D01*
X135975922Y-86390524D01*
X135975921Y-86390523D01*
X135931359Y-86358147D01*
X135931350Y-86358141D01*
X135749031Y-86265244D01*
X135554417Y-86202009D01*
X135352317Y-86170000D01*
X135147683Y-86170000D01*
X134945582Y-86202009D01*
X134750968Y-86265244D01*
X134568644Y-86358143D01*
X134524077Y-86390523D01*
X134524077Y-86390524D01*
X135203554Y-87070000D01*
X135197339Y-87070000D01*
X135095606Y-87097259D01*
X135004394Y-87149920D01*
X134929920Y-87224394D01*
X134877259Y-87315606D01*
X134850000Y-87417339D01*
X134850000Y-87423553D01*
X134170524Y-86744077D01*
X134170523Y-86744077D01*
X134138143Y-86788644D01*
X134045244Y-86970968D01*
X133982009Y-87165582D01*
X133950000Y-87367682D01*
X131392586Y-87367682D01*
X131376832Y-87268215D01*
X131368477Y-87215465D01*
X131305218Y-87020776D01*
X131247859Y-86908204D01*
X131212287Y-86838390D01*
X131176145Y-86788644D01*
X131091971Y-86672786D01*
X130950963Y-86531778D01*
X130947219Y-86528034D01*
X130901000Y-86494454D01*
X130900289Y-86493923D01*
X130879824Y-86466642D01*
X130858949Y-86439571D01*
X130858759Y-86438560D01*
X130858362Y-86438031D01*
X130858174Y-86435447D01*
X130850500Y-86394582D01*
X130850500Y-84662229D01*
X130870185Y-84595190D01*
X130886819Y-84574548D01*
X131962948Y-83498419D01*
X131962951Y-83498416D01*
X132045084Y-83375495D01*
X132101658Y-83238913D01*
X132130500Y-83093918D01*
X132130500Y-82946083D01*
X132130500Y-79337220D01*
X132150185Y-79270181D01*
X132181614Y-79236902D01*
X132259792Y-79180104D01*
X132373717Y-79066178D01*
X132435036Y-79032696D01*
X132504728Y-79037680D01*
X132560662Y-79079551D01*
X132577577Y-79110528D01*
X132626646Y-79242088D01*
X132626649Y-79242093D01*
X132712809Y-79357187D01*
X132712812Y-79357190D01*
X132827906Y-79443350D01*
X132827913Y-79443354D01*
X132962620Y-79493596D01*
X132962627Y-79493598D01*
X133022155Y-79499999D01*
X133022172Y-79500000D01*
X133670000Y-79500000D01*
X133670000Y-78583012D01*
X133727007Y-78615925D01*
X133854174Y-78650000D01*
X133985826Y-78650000D01*
X134112993Y-78615925D01*
X134170000Y-78583012D01*
X134170000Y-79500000D01*
X134817828Y-79500000D01*
X134817844Y-79499999D01*
X134877372Y-79493598D01*
X134877379Y-79493596D01*
X135012086Y-79443354D01*
X135012093Y-79443350D01*
X135127187Y-79357190D01*
X135127190Y-79357187D01*
X135213350Y-79242093D01*
X135213354Y-79242086D01*
X135263596Y-79107379D01*
X135263598Y-79107372D01*
X135269999Y-79047844D01*
X135270000Y-79047827D01*
X135270000Y-78400000D01*
X134353012Y-78400000D01*
X134385925Y-78342993D01*
X134420000Y-78215826D01*
X134420000Y-78084174D01*
X134385925Y-77957007D01*
X134353012Y-77900000D01*
X135270000Y-77900000D01*
X135270000Y-77252172D01*
X135269999Y-77252155D01*
X135263598Y-77192627D01*
X135263596Y-77192620D01*
X135213354Y-77057913D01*
X135213350Y-77057906D01*
X135127190Y-76942812D01*
X135127187Y-76942809D01*
X135012093Y-76856649D01*
X135012086Y-76856645D01*
X134877379Y-76806403D01*
X134877372Y-76806401D01*
X134817844Y-76800000D01*
X134170000Y-76800000D01*
X134170000Y-77716988D01*
X134112993Y-77684075D01*
X133985826Y-77650000D01*
X133854174Y-77650000D01*
X133727007Y-77684075D01*
X133670000Y-77716988D01*
X133670000Y-76800000D01*
X133022155Y-76800000D01*
X132962627Y-76806401D01*
X132962620Y-76806403D01*
X132827913Y-76856645D01*
X132827906Y-76856649D01*
X132712812Y-76942809D01*
X132712809Y-76942812D01*
X132626649Y-77057906D01*
X132626646Y-77057912D01*
X132577577Y-77189471D01*
X132535705Y-77245404D01*
X132470241Y-77269821D01*
X132401968Y-77254969D01*
X132373714Y-77233818D01*
X132259786Y-77119890D01*
X132087820Y-76994951D01*
X131898414Y-76898444D01*
X131898413Y-76898443D01*
X131898412Y-76898443D01*
X131696243Y-76832754D01*
X131696241Y-76832753D01*
X131696240Y-76832753D01*
X131534957Y-76807208D01*
X131486287Y-76799500D01*
X131273713Y-76799500D01*
X131225042Y-76807208D01*
X131063760Y-76832753D01*
X130861585Y-76898444D01*
X130672179Y-76994951D01*
X130500213Y-77119890D01*
X130349890Y-77270213D01*
X130224949Y-77442182D01*
X130220484Y-77450946D01*
X130172509Y-77501742D01*
X130104688Y-77518536D01*
X130038553Y-77495998D01*
X129999516Y-77450946D01*
X129995050Y-77442182D01*
X129870109Y-77270213D01*
X129719786Y-77119890D01*
X129547815Y-76994948D01*
X129547814Y-76994947D01*
X129508205Y-76974765D01*
X129457409Y-76926791D01*
X129440500Y-76864281D01*
X129440500Y-75910097D01*
X129460185Y-75843058D01*
X129476819Y-75822416D01*
X130112416Y-75186819D01*
X130173739Y-75153334D01*
X130200097Y-75150500D01*
X136599903Y-75150500D01*
X136666942Y-75170185D01*
G37*
%TD.AperFunction*%
%TA.AperFunction,Conductor*%
G36*
X176153032Y-70450648D02*
G01*
X176486929Y-70467052D01*
X176499037Y-70468245D01*
X176602146Y-70483539D01*
X176826699Y-70516849D01*
X176838617Y-70519219D01*
X177159951Y-70599709D01*
X177171588Y-70603240D01*
X177242806Y-70628722D01*
X177483467Y-70714832D01*
X177494688Y-70719479D01*
X177794163Y-70861120D01*
X177804871Y-70866844D01*
X178088988Y-71037137D01*
X178099106Y-71043897D01*
X178365170Y-71241224D01*
X178374576Y-71248944D01*
X178620013Y-71471395D01*
X178628604Y-71479986D01*
X178736925Y-71599500D01*
X178851055Y-71725423D01*
X178858775Y-71734829D01*
X179056102Y-72000893D01*
X179062862Y-72011011D01*
X179191776Y-72226092D01*
X179233148Y-72295116D01*
X179238885Y-72305848D01*
X179380514Y-72605297D01*
X179385170Y-72616540D01*
X179496759Y-72928411D01*
X179500292Y-72940055D01*
X179580777Y-73261369D01*
X179583151Y-73273305D01*
X179631754Y-73600962D01*
X179632947Y-73613071D01*
X179649351Y-73946966D01*
X179649500Y-73953051D01*
X179649500Y-125946948D01*
X179649351Y-125953033D01*
X179632947Y-126286928D01*
X179631754Y-126299037D01*
X179583151Y-126626694D01*
X179580777Y-126638630D01*
X179500292Y-126959944D01*
X179496759Y-126971588D01*
X179385170Y-127283459D01*
X179380514Y-127294702D01*
X179238885Y-127594151D01*
X179233148Y-127604883D01*
X179062862Y-127888988D01*
X179056102Y-127899106D01*
X178858775Y-128165170D01*
X178851055Y-128174576D01*
X178628611Y-128420006D01*
X178620006Y-128428611D01*
X178374576Y-128651055D01*
X178365170Y-128658775D01*
X178099106Y-128856102D01*
X178088988Y-128862862D01*
X177804883Y-129033148D01*
X177794151Y-129038885D01*
X177494702Y-129180514D01*
X177483459Y-129185170D01*
X177171588Y-129296759D01*
X177159944Y-129300292D01*
X176838630Y-129380777D01*
X176826694Y-129383151D01*
X176499037Y-129431754D01*
X176486928Y-129432947D01*
X176171989Y-129448419D01*
X176153031Y-129449351D01*
X176146949Y-129449500D01*
X157465944Y-129449500D01*
X157398905Y-129429815D01*
X157353150Y-129377011D01*
X157341944Y-129325500D01*
X157341944Y-125878288D01*
X146608660Y-125878288D01*
X146608660Y-129325500D01*
X146588975Y-129392539D01*
X146536171Y-129438294D01*
X146484660Y-129449500D01*
X124153051Y-129449500D01*
X124146968Y-129449351D01*
X124126900Y-129448365D01*
X123813071Y-129432947D01*
X123800962Y-129431754D01*
X123473305Y-129383151D01*
X123461369Y-129380777D01*
X123140055Y-129300292D01*
X123128411Y-129296759D01*
X122816540Y-129185170D01*
X122805301Y-129180515D01*
X122505844Y-129038883D01*
X122495121Y-129033150D01*
X122211011Y-128862862D01*
X122200893Y-128856102D01*
X121934829Y-128658775D01*
X121925423Y-128651055D01*
X121886475Y-128615755D01*
X121679986Y-128428604D01*
X121671395Y-128420013D01*
X121448944Y-128174576D01*
X121441224Y-128165170D01*
X121243897Y-127899106D01*
X121237137Y-127888988D01*
X121066844Y-127604871D01*
X121061120Y-127594163D01*
X120919479Y-127294688D01*
X120914829Y-127283459D01*
X120803240Y-126971588D01*
X120799707Y-126959944D01*
X120790958Y-126925015D01*
X120719219Y-126638617D01*
X120716848Y-126626694D01*
X120668245Y-126299037D01*
X120667052Y-126286927D01*
X120650649Y-125953032D01*
X120650500Y-125946948D01*
X120650500Y-94809568D01*
X121249500Y-94809568D01*
X121249500Y-95090431D01*
X121280942Y-95369494D01*
X121280945Y-95369512D01*
X121343439Y-95643317D01*
X121343443Y-95643329D01*
X121436200Y-95908411D01*
X121558053Y-96161442D01*
X121558055Y-96161445D01*
X121707477Y-96399248D01*
X121882584Y-96618825D01*
X122081175Y-96817416D01*
X122300752Y-96992523D01*
X122538555Y-97141945D01*
X122538557Y-97141946D01*
X122619189Y-97180776D01*
X122791592Y-97263801D01*
X122930380Y-97312365D01*
X123056670Y-97356556D01*
X123056682Y-97356560D01*
X123330491Y-97419055D01*
X123330497Y-97419055D01*
X123330505Y-97419057D01*
X123516547Y-97440018D01*
X123609569Y-97450499D01*
X123609572Y-97450500D01*
X123609575Y-97450500D01*
X123890428Y-97450500D01*
X123890429Y-97450499D01*
X124033055Y-97434429D01*
X124169494Y-97419057D01*
X124169499Y-97419056D01*
X124169509Y-97419055D01*
X124443318Y-97356560D01*
X124708408Y-97263801D01*
X124961445Y-97141945D01*
X125199248Y-96992523D01*
X125418825Y-96817416D01*
X125617416Y-96618825D01*
X125792523Y-96399248D01*
X125941945Y-96161445D01*
X126063801Y-95908408D01*
X126156560Y-95643318D01*
X126219055Y-95369509D01*
X126223309Y-95331758D01*
X126246041Y-95130000D01*
X126250500Y-95090425D01*
X126250500Y-94809575D01*
X126219055Y-94530491D01*
X126156560Y-94256682D01*
X126063801Y-93991592D01*
X125941945Y-93738555D01*
X125792523Y-93500752D01*
X125617416Y-93281175D01*
X125418825Y-93082584D01*
X125199248Y-92907477D01*
X124961445Y-92758055D01*
X124961442Y-92758053D01*
X124708411Y-92636200D01*
X124443329Y-92543443D01*
X124443317Y-92543439D01*
X124169512Y-92480945D01*
X124169494Y-92480942D01*
X123890431Y-92449500D01*
X123890425Y-92449500D01*
X123609575Y-92449500D01*
X123609568Y-92449500D01*
X123330505Y-92480942D01*
X123330487Y-92480945D01*
X123056682Y-92543439D01*
X123056670Y-92543443D01*
X122791588Y-92636200D01*
X122538557Y-92758053D01*
X122300753Y-92907476D01*
X122081175Y-93082583D01*
X121882583Y-93281175D01*
X121707476Y-93500753D01*
X121558053Y-93738557D01*
X121436200Y-93991588D01*
X121343443Y-94256670D01*
X121343439Y-94256682D01*
X121280945Y-94530487D01*
X121280942Y-94530505D01*
X121249500Y-94809568D01*
X120650500Y-94809568D01*
X120650500Y-78043713D01*
X124949500Y-78043713D01*
X124949500Y-78256287D01*
X124982754Y-78466243D01*
X125028491Y-78607007D01*
X125048444Y-78668414D01*
X125144951Y-78857820D01*
X125269890Y-79029786D01*
X125269896Y-79029792D01*
X125420208Y-79180104D01*
X125498384Y-79236902D01*
X125541051Y-79292231D01*
X125549500Y-79337220D01*
X125549500Y-85773918D01*
X125549500Y-85773920D01*
X125549499Y-85773920D01*
X125578340Y-85918907D01*
X125578343Y-85918917D01*
X125634914Y-86055492D01*
X125667812Y-86104727D01*
X125667813Y-86104730D01*
X125717046Y-86178414D01*
X125717052Y-86178421D01*
X126463181Y-86924549D01*
X126496666Y-86985872D01*
X126499500Y-87012230D01*
X126499500Y-98773918D01*
X126499500Y-98773920D01*
X126499499Y-98773920D01*
X126528340Y-98918907D01*
X126528343Y-98918917D01*
X126584914Y-99055492D01*
X126617812Y-99104727D01*
X126617813Y-99104730D01*
X126667046Y-99178414D01*
X126667052Y-99178421D01*
X129613181Y-102124549D01*
X129646666Y-102185872D01*
X129649500Y-102212230D01*
X129649500Y-103390382D01*
X129629815Y-103457421D01*
X129595408Y-103491099D01*
X129596125Y-103492085D01*
X129420213Y-103619890D01*
X129269890Y-103770213D01*
X129144949Y-103942182D01*
X129140202Y-103951499D01*
X129092227Y-104002293D01*
X129024405Y-104019087D01*
X128958271Y-103996548D01*
X128919234Y-103951495D01*
X128914626Y-103942452D01*
X128875270Y-103888282D01*
X128875269Y-103888282D01*
X128242962Y-104520590D01*
X128225925Y-104457007D01*
X128160099Y-104342993D01*
X128067007Y-104249901D01*
X127952993Y-104184075D01*
X127889409Y-104167037D01*
X128521716Y-103534728D01*
X128467550Y-103495375D01*
X128278217Y-103398904D01*
X128076129Y-103333242D01*
X127866246Y-103300000D01*
X127653754Y-103300000D01*
X127443872Y-103333242D01*
X127443869Y-103333242D01*
X127241782Y-103398904D01*
X127052439Y-103495380D01*
X126998282Y-103534727D01*
X126998282Y-103534728D01*
X127630591Y-104167037D01*
X127567007Y-104184075D01*
X127452993Y-104249901D01*
X127359901Y-104342993D01*
X127294075Y-104457007D01*
X127277037Y-104520591D01*
X126644728Y-103888282D01*
X126644727Y-103888282D01*
X126605380Y-103942439D01*
X126508904Y-104131782D01*
X126443242Y-104333869D01*
X126443242Y-104333872D01*
X126410000Y-104543753D01*
X126410000Y-104756246D01*
X126443242Y-104966127D01*
X126443242Y-104966130D01*
X126508904Y-105168217D01*
X126605375Y-105357550D01*
X126644728Y-105411716D01*
X127277037Y-104779408D01*
X127294075Y-104842993D01*
X127359901Y-104957007D01*
X127452993Y-105050099D01*
X127567007Y-105115925D01*
X127630590Y-105132962D01*
X126998282Y-105765269D01*
X126998282Y-105765270D01*
X127052449Y-105804624D01*
X127241782Y-105901095D01*
X127443870Y-105966757D01*
X127653754Y-106000000D01*
X127866246Y-106000000D01*
X128076127Y-105966757D01*
X128076130Y-105966757D01*
X128278217Y-105901095D01*
X128467554Y-105804622D01*
X128521716Y-105765270D01*
X128521717Y-105765270D01*
X127889408Y-105132962D01*
X127952993Y-105115925D01*
X128067007Y-105050099D01*
X128160099Y-104957007D01*
X128225925Y-104842993D01*
X128242962Y-104779409D01*
X128875270Y-105411717D01*
X128875270Y-105411716D01*
X128914622Y-105357555D01*
X128919232Y-105348507D01*
X128967205Y-105297709D01*
X129035025Y-105280912D01*
X129101161Y-105303447D01*
X129140204Y-105348504D01*
X129144949Y-105357817D01*
X129269890Y-105529786D01*
X129269896Y-105529792D01*
X129420208Y-105680104D01*
X129592184Y-105805051D01*
X129592188Y-105805053D01*
X129596126Y-105807914D01*
X129595146Y-105809262D01*
X129637160Y-105855690D01*
X129649500Y-105909617D01*
X129649500Y-109447390D01*
X129629815Y-109514429D01*
X129598385Y-109547708D01*
X129430214Y-109669890D01*
X129430209Y-109669894D01*
X129279890Y-109820213D01*
X129154949Y-109992182D01*
X129150202Y-110001499D01*
X129102227Y-110052293D01*
X129034405Y-110069087D01*
X128968271Y-110046548D01*
X128929234Y-110001495D01*
X128924626Y-109992452D01*
X128885270Y-109938282D01*
X128885269Y-109938282D01*
X128252962Y-110570590D01*
X128235925Y-110507007D01*
X128170099Y-110392993D01*
X128077007Y-110299901D01*
X127962993Y-110234075D01*
X127899409Y-110217037D01*
X128531716Y-109584728D01*
X128477550Y-109545375D01*
X128288217Y-109448904D01*
X128086129Y-109383242D01*
X127876246Y-109350000D01*
X127663754Y-109350000D01*
X127453872Y-109383242D01*
X127453869Y-109383242D01*
X127251782Y-109448904D01*
X127062439Y-109545380D01*
X127008282Y-109584727D01*
X127008282Y-109584728D01*
X127640591Y-110217037D01*
X127577007Y-110234075D01*
X127462993Y-110299901D01*
X127369901Y-110392993D01*
X127304075Y-110507007D01*
X127287037Y-110570591D01*
X126654728Y-109938282D01*
X126654727Y-109938282D01*
X126615380Y-109992439D01*
X126518904Y-110181782D01*
X126453242Y-110383869D01*
X126453242Y-110383872D01*
X126420000Y-110593753D01*
X126420000Y-110806246D01*
X126453242Y-111016127D01*
X126453242Y-111016130D01*
X126518904Y-111218217D01*
X126615375Y-111407550D01*
X126654728Y-111461716D01*
X127287037Y-110829408D01*
X127304075Y-110892993D01*
X127369901Y-111007007D01*
X127462993Y-111100099D01*
X127577007Y-111165925D01*
X127640590Y-111182962D01*
X127008282Y-111815269D01*
X127008282Y-111815270D01*
X127062449Y-111854624D01*
X127251782Y-111951095D01*
X127453870Y-112016757D01*
X127663754Y-112050000D01*
X127876246Y-112050000D01*
X128086127Y-112016757D01*
X128086130Y-112016757D01*
X128288217Y-111951095D01*
X128477554Y-111854622D01*
X128531716Y-111815270D01*
X128531717Y-111815270D01*
X127899408Y-111182962D01*
X127962993Y-111165925D01*
X128077007Y-111100099D01*
X128170099Y-111007007D01*
X128235925Y-110892993D01*
X128252962Y-110829408D01*
X128885270Y-111461717D01*
X128885270Y-111461716D01*
X128924622Y-111407555D01*
X128929232Y-111398507D01*
X128977205Y-111347709D01*
X129045025Y-111330912D01*
X129111161Y-111353447D01*
X129150204Y-111398504D01*
X129154949Y-111407817D01*
X129279890Y-111579786D01*
X129430211Y-111730107D01*
X129486417Y-111770942D01*
X129598386Y-111852291D01*
X129641051Y-111907619D01*
X129649500Y-111952608D01*
X129649500Y-115647390D01*
X129629815Y-115714429D01*
X129598385Y-115747708D01*
X129430214Y-115869890D01*
X129430209Y-115869894D01*
X129279890Y-116020213D01*
X129154949Y-116192182D01*
X129150202Y-116201499D01*
X129102227Y-116252293D01*
X129034405Y-116269087D01*
X128968271Y-116246548D01*
X128929234Y-116201495D01*
X128924626Y-116192452D01*
X128885270Y-116138282D01*
X128885269Y-116138282D01*
X128252962Y-116770590D01*
X128235925Y-116707007D01*
X128170099Y-116592993D01*
X128077007Y-116499901D01*
X127962993Y-116434075D01*
X127899409Y-116417037D01*
X128531716Y-115784728D01*
X128477550Y-115745375D01*
X128288217Y-115648904D01*
X128086129Y-115583242D01*
X127876246Y-115550000D01*
X127663754Y-115550000D01*
X127453872Y-115583242D01*
X127453869Y-115583242D01*
X127251782Y-115648904D01*
X127062439Y-115745380D01*
X127008282Y-115784727D01*
X127008282Y-115784728D01*
X127640591Y-116417037D01*
X127577007Y-116434075D01*
X127462993Y-116499901D01*
X127369901Y-116592993D01*
X127304075Y-116707007D01*
X127287037Y-116770591D01*
X126654728Y-116138282D01*
X126654727Y-116138282D01*
X126615380Y-116192439D01*
X126518904Y-116381782D01*
X126453242Y-116583869D01*
X126453242Y-116583872D01*
X126420000Y-116793753D01*
X126420000Y-117006246D01*
X126453242Y-117216127D01*
X126453242Y-117216130D01*
X126518904Y-117418217D01*
X126615375Y-117607550D01*
X126654728Y-117661716D01*
X127287037Y-117029408D01*
X127304075Y-117092993D01*
X127369901Y-117207007D01*
X127462993Y-117300099D01*
X127577007Y-117365925D01*
X127640590Y-117382962D01*
X127008282Y-118015269D01*
X127008282Y-118015270D01*
X127062449Y-118054624D01*
X127251782Y-118151095D01*
X127453870Y-118216757D01*
X127663754Y-118250000D01*
X127876246Y-118250000D01*
X128086127Y-118216757D01*
X128086130Y-118216757D01*
X128288217Y-118151095D01*
X128477554Y-118054622D01*
X128531716Y-118015270D01*
X128531717Y-118015270D01*
X127899408Y-117382962D01*
X127962993Y-117365925D01*
X128077007Y-117300099D01*
X128170099Y-117207007D01*
X128235925Y-117092993D01*
X128252962Y-117029408D01*
X128885270Y-117661717D01*
X128885270Y-117661716D01*
X128924622Y-117607555D01*
X128929232Y-117598507D01*
X128977205Y-117547709D01*
X129045025Y-117530912D01*
X129111161Y-117553447D01*
X129150204Y-117598504D01*
X129154949Y-117607817D01*
X129279890Y-117779786D01*
X129430211Y-117930107D01*
X129473190Y-117961332D01*
X129598386Y-118052291D01*
X129641051Y-118107619D01*
X129649500Y-118152608D01*
X129649500Y-121812779D01*
X129629815Y-121879818D01*
X129598385Y-121913097D01*
X129520211Y-121969893D01*
X129520205Y-121969898D01*
X129369890Y-122120213D01*
X129244949Y-122292182D01*
X129240202Y-122301499D01*
X129192227Y-122352293D01*
X129124405Y-122369087D01*
X129058271Y-122346548D01*
X129019234Y-122301495D01*
X129014626Y-122292452D01*
X128975270Y-122238282D01*
X128975269Y-122238282D01*
X128342962Y-122870590D01*
X128325925Y-122807007D01*
X128260099Y-122692993D01*
X128167007Y-122599901D01*
X128052993Y-122534075D01*
X127989409Y-122517037D01*
X128621716Y-121884728D01*
X128567550Y-121845375D01*
X128378217Y-121748904D01*
X128176129Y-121683242D01*
X127966246Y-121650000D01*
X127753754Y-121650000D01*
X127543872Y-121683242D01*
X127543869Y-121683242D01*
X127341782Y-121748904D01*
X127152439Y-121845380D01*
X127098282Y-121884727D01*
X127098282Y-121884728D01*
X127730591Y-122517037D01*
X127667007Y-122534075D01*
X127552993Y-122599901D01*
X127459901Y-122692993D01*
X127394075Y-122807007D01*
X127377037Y-122870591D01*
X126744728Y-122238282D01*
X126744727Y-122238282D01*
X126705380Y-122292439D01*
X126608904Y-122481782D01*
X126543242Y-122683869D01*
X126543242Y-122683872D01*
X126510000Y-122893753D01*
X126510000Y-123106246D01*
X126543242Y-123316127D01*
X126543242Y-123316130D01*
X126608904Y-123518217D01*
X126705375Y-123707550D01*
X126744728Y-123761716D01*
X127377037Y-123129408D01*
X127394075Y-123192993D01*
X127459901Y-123307007D01*
X127552993Y-123400099D01*
X127667007Y-123465925D01*
X127730590Y-123482962D01*
X127098282Y-124115269D01*
X127098282Y-124115270D01*
X127152449Y-124154624D01*
X127341782Y-124251095D01*
X127543870Y-124316757D01*
X127753754Y-124350000D01*
X127966246Y-124350000D01*
X128176127Y-124316757D01*
X128176130Y-124316757D01*
X128378217Y-124251095D01*
X128567554Y-124154622D01*
X128621716Y-124115270D01*
X128621717Y-124115270D01*
X127989408Y-123482962D01*
X128052993Y-123465925D01*
X128167007Y-123400099D01*
X128260099Y-123307007D01*
X128325925Y-123192993D01*
X128342962Y-123129408D01*
X128975270Y-123761717D01*
X128975270Y-123761716D01*
X129014622Y-123707555D01*
X129019232Y-123698507D01*
X129067205Y-123647709D01*
X129135025Y-123630912D01*
X129201161Y-123653447D01*
X129240204Y-123698504D01*
X129244949Y-123707817D01*
X129369890Y-123879786D01*
X129520213Y-124030109D01*
X129692179Y-124155048D01*
X129692181Y-124155049D01*
X129692184Y-124155051D01*
X129881588Y-124251557D01*
X130083757Y-124317246D01*
X130293713Y-124350500D01*
X130293714Y-124350500D01*
X130506286Y-124350500D01*
X130506287Y-124350500D01*
X130716243Y-124317246D01*
X130918412Y-124251557D01*
X131107816Y-124155051D01*
X131231391Y-124065269D01*
X131279784Y-124030110D01*
X131279784Y-124030109D01*
X131279792Y-124030104D01*
X131393329Y-123916566D01*
X131454648Y-123883084D01*
X131524340Y-123888068D01*
X131580274Y-123929939D01*
X131597189Y-123960917D01*
X131646202Y-124092328D01*
X131646206Y-124092335D01*
X131732452Y-124207544D01*
X131732455Y-124207547D01*
X131847664Y-124293793D01*
X131847671Y-124293797D01*
X131982517Y-124344091D01*
X131982516Y-124344091D01*
X131989444Y-124344835D01*
X132042127Y-124350500D01*
X133837872Y-124350499D01*
X133897483Y-124344091D01*
X134032331Y-124293796D01*
X134147546Y-124207546D01*
X134233796Y-124092331D01*
X134284091Y-123957483D01*
X134290500Y-123897873D01*
X134290500Y-123724500D01*
X134310185Y-123657461D01*
X134362989Y-123611706D01*
X134414500Y-123600500D01*
X136449903Y-123600500D01*
X136516942Y-123620185D01*
X136537584Y-123636819D01*
X137619481Y-124718716D01*
X137731284Y-124830519D01*
X137868215Y-124909577D01*
X138020943Y-124950501D01*
X138020946Y-124950501D01*
X138179055Y-124950501D01*
X138179057Y-124950501D01*
X138195669Y-124946049D01*
X138200614Y-124944725D01*
X138232706Y-124940500D01*
X141128164Y-124940500D01*
X141195203Y-124960185D01*
X141238648Y-125008204D01*
X141272185Y-125074023D01*
X141401752Y-125252358D01*
X141401756Y-125252363D01*
X141557636Y-125408243D01*
X141557641Y-125408247D01*
X141713192Y-125521260D01*
X141735978Y-125537815D01*
X141864375Y-125603237D01*
X141932393Y-125637895D01*
X141932396Y-125637896D01*
X142037221Y-125671955D01*
X142142049Y-125706015D01*
X142359778Y-125740500D01*
X142359779Y-125740500D01*
X143180221Y-125740500D01*
X143180222Y-125740500D01*
X143397951Y-125706015D01*
X143607606Y-125637895D01*
X143804022Y-125537815D01*
X143982365Y-125408242D01*
X144138242Y-125252365D01*
X144267815Y-125074022D01*
X144367895Y-124877606D01*
X144436015Y-124667951D01*
X144470500Y-124450222D01*
X144470500Y-124229778D01*
X144436015Y-124012049D01*
X144393041Y-123879786D01*
X144367896Y-123802396D01*
X144367895Y-123802393D01*
X144319705Y-123707817D01*
X144267815Y-123605978D01*
X144204195Y-123518412D01*
X144138247Y-123427641D01*
X144138243Y-123427636D01*
X143982363Y-123271756D01*
X143982358Y-123271752D01*
X143842745Y-123170318D01*
X143800079Y-123114989D01*
X143794100Y-123045375D01*
X143826705Y-122983580D01*
X143842745Y-122969682D01*
X143982358Y-122868247D01*
X143982356Y-122868247D01*
X143982365Y-122868242D01*
X144138242Y-122712365D01*
X144267815Y-122534022D01*
X144367895Y-122337606D01*
X144436015Y-122127951D01*
X144470500Y-121910222D01*
X144470500Y-121689778D01*
X144436015Y-121472049D01*
X144367895Y-121262394D01*
X144367895Y-121262393D01*
X144301351Y-121131796D01*
X144267815Y-121065978D01*
X144251260Y-121043192D01*
X144138247Y-120887641D01*
X144138243Y-120887636D01*
X143982363Y-120731756D01*
X143982358Y-120731752D01*
X143842319Y-120630008D01*
X143799653Y-120574678D01*
X143793674Y-120505065D01*
X143826279Y-120443270D01*
X143842319Y-120429372D01*
X143982035Y-120327862D01*
X143982041Y-120327857D01*
X144137857Y-120172041D01*
X144267386Y-119993760D01*
X144367432Y-119797410D01*
X144435526Y-119587838D01*
X144435526Y-119587835D01*
X144447855Y-119510000D01*
X143203012Y-119510000D01*
X143235925Y-119452993D01*
X143270000Y-119325826D01*
X143270000Y-119194174D01*
X143235925Y-119067007D01*
X143203012Y-119010000D01*
X144447855Y-119010000D01*
X144435526Y-118932164D01*
X144435526Y-118932161D01*
X144367432Y-118722589D01*
X144267386Y-118526239D01*
X144137857Y-118347958D01*
X143982041Y-118192142D01*
X143842318Y-118090627D01*
X143799653Y-118035297D01*
X143793674Y-117965684D01*
X143826280Y-117903889D01*
X143842313Y-117889994D01*
X143982365Y-117788242D01*
X144138242Y-117632365D01*
X144267815Y-117454022D01*
X144367895Y-117257606D01*
X144436015Y-117047951D01*
X144470500Y-116830222D01*
X144470500Y-116609778D01*
X144436015Y-116392049D01*
X144382392Y-116227011D01*
X144367896Y-116182396D01*
X144367895Y-116182393D01*
X144327233Y-116102591D01*
X144267815Y-115985978D01*
X144194253Y-115884728D01*
X144138247Y-115807641D01*
X144138243Y-115807636D01*
X143982363Y-115651756D01*
X143982358Y-115651752D01*
X143842745Y-115550318D01*
X143800079Y-115494989D01*
X143794100Y-115425375D01*
X143826705Y-115363580D01*
X143842745Y-115349682D01*
X143982358Y-115248247D01*
X143982356Y-115248247D01*
X143982365Y-115248242D01*
X144138242Y-115092365D01*
X144267815Y-114914022D01*
X144367895Y-114717606D01*
X144436015Y-114507951D01*
X144470500Y-114290222D01*
X144470500Y-114069778D01*
X144436015Y-113852049D01*
X144367895Y-113642394D01*
X144367895Y-113642393D01*
X144333237Y-113574375D01*
X144267815Y-113445978D01*
X144175120Y-113318393D01*
X144138247Y-113267641D01*
X144138243Y-113267636D01*
X143982363Y-113111756D01*
X143982358Y-113111752D01*
X143842745Y-113010318D01*
X143800079Y-112954989D01*
X143794100Y-112885375D01*
X143826705Y-112823580D01*
X143842745Y-112809682D01*
X143982358Y-112708247D01*
X143982356Y-112708247D01*
X143982365Y-112708242D01*
X144138242Y-112552365D01*
X144267815Y-112374022D01*
X144367895Y-112177606D01*
X144436015Y-111967951D01*
X144470500Y-111750222D01*
X144470500Y-111529778D01*
X144436015Y-111312049D01*
X144367895Y-111102394D01*
X144367895Y-111102393D01*
X144319292Y-111007007D01*
X144267815Y-110905978D01*
X144195356Y-110806246D01*
X144138247Y-110727641D01*
X144138243Y-110727636D01*
X143982363Y-110571756D01*
X143982358Y-110571752D01*
X143842745Y-110470318D01*
X143800079Y-110414989D01*
X143794100Y-110345375D01*
X143826705Y-110283580D01*
X143842745Y-110269682D01*
X143982358Y-110168247D01*
X143982366Y-110168241D01*
X144051108Y-110099499D01*
X144138242Y-110012365D01*
X144267815Y-109834022D01*
X144367895Y-109637606D01*
X144436015Y-109427951D01*
X144470500Y-109210222D01*
X144470500Y-108989778D01*
X144436015Y-108772049D01*
X144367895Y-108562394D01*
X144367895Y-108562393D01*
X144310676Y-108450097D01*
X144267815Y-108365978D01*
X144251260Y-108343192D01*
X144138247Y-108187641D01*
X144138243Y-108187636D01*
X143982363Y-108031756D01*
X143982358Y-108031752D01*
X143842319Y-107930008D01*
X143799653Y-107874678D01*
X143793674Y-107805065D01*
X143826279Y-107743270D01*
X143842319Y-107729372D01*
X143982035Y-107627862D01*
X143982041Y-107627857D01*
X144137857Y-107472041D01*
X144267386Y-107293760D01*
X144367432Y-107097410D01*
X144435526Y-106887838D01*
X144435526Y-106887835D01*
X144447855Y-106810000D01*
X143203012Y-106810000D01*
X143235925Y-106752993D01*
X143270000Y-106625826D01*
X143270000Y-106494174D01*
X143235925Y-106367007D01*
X143203012Y-106310000D01*
X144447855Y-106310000D01*
X144435526Y-106232164D01*
X144435526Y-106232161D01*
X144367432Y-106022589D01*
X144267386Y-105826239D01*
X144137857Y-105647958D01*
X143982041Y-105492142D01*
X143842318Y-105390627D01*
X143799653Y-105335297D01*
X143793674Y-105265684D01*
X143826280Y-105203889D01*
X143842313Y-105189994D01*
X143982365Y-105088242D01*
X144138242Y-104932365D01*
X144267815Y-104754022D01*
X144367895Y-104557606D01*
X144436015Y-104347951D01*
X144470500Y-104130222D01*
X144470500Y-103909778D01*
X144436015Y-103692049D01*
X144376106Y-103507664D01*
X144367896Y-103482396D01*
X144367895Y-103482393D01*
X144303596Y-103356202D01*
X144267815Y-103285978D01*
X144236551Y-103242947D01*
X144138247Y-103107641D01*
X144138243Y-103107636D01*
X143982363Y-102951756D01*
X143982358Y-102951752D01*
X143842745Y-102850318D01*
X143800079Y-102794989D01*
X143794100Y-102725375D01*
X143826705Y-102663580D01*
X143842745Y-102649682D01*
X143982358Y-102548247D01*
X143982356Y-102548247D01*
X143982365Y-102548242D01*
X144138242Y-102392365D01*
X144267815Y-102214022D01*
X144367895Y-102017606D01*
X144436015Y-101807951D01*
X144470500Y-101590222D01*
X144470500Y-101369778D01*
X144436015Y-101152049D01*
X144367895Y-100942394D01*
X144367895Y-100942393D01*
X144333237Y-100874375D01*
X144267815Y-100745978D01*
X144251260Y-100723192D01*
X144138247Y-100567641D01*
X144138243Y-100567636D01*
X143982363Y-100411756D01*
X143982358Y-100411752D01*
X143842745Y-100310318D01*
X143800079Y-100254989D01*
X143794100Y-100185375D01*
X143826705Y-100123580D01*
X143842745Y-100109682D01*
X143982358Y-100008247D01*
X143982356Y-100008247D01*
X143982365Y-100008242D01*
X144138242Y-99852365D01*
X144267815Y-99674022D01*
X144367895Y-99477606D01*
X144436015Y-99267951D01*
X144470500Y-99050222D01*
X144470500Y-98829778D01*
X144436015Y-98612049D01*
X144367895Y-98402394D01*
X144367895Y-98402393D01*
X144288925Y-98247409D01*
X144267815Y-98205978D01*
X144248374Y-98179219D01*
X144138247Y-98027641D01*
X144138243Y-98027636D01*
X143982363Y-97871756D01*
X143982358Y-97871752D01*
X143842745Y-97770318D01*
X143800079Y-97714989D01*
X143794100Y-97645375D01*
X143826705Y-97583580D01*
X143842745Y-97569682D01*
X143982358Y-97468247D01*
X143982356Y-97468247D01*
X143982365Y-97468242D01*
X144138242Y-97312365D01*
X144267815Y-97134022D01*
X144367895Y-96937606D01*
X144436015Y-96727951D01*
X144470500Y-96510222D01*
X144470500Y-96289778D01*
X144436015Y-96072049D01*
X144367895Y-95862394D01*
X144367895Y-95862393D01*
X144333237Y-95794375D01*
X144267815Y-95665978D01*
X144178698Y-95543318D01*
X144138247Y-95487641D01*
X144138243Y-95487636D01*
X143982363Y-95331756D01*
X143982358Y-95331752D01*
X143842319Y-95230008D01*
X143799653Y-95174678D01*
X143793674Y-95105065D01*
X143826279Y-95043270D01*
X143842319Y-95029372D01*
X143982035Y-94927862D01*
X143982041Y-94927857D01*
X144137857Y-94772041D01*
X144267386Y-94593760D01*
X144367432Y-94397410D01*
X144435526Y-94187838D01*
X144435526Y-94187835D01*
X144447855Y-94110000D01*
X143203012Y-94110000D01*
X143235925Y-94052993D01*
X143270000Y-93925826D01*
X143270000Y-93794174D01*
X143235925Y-93667007D01*
X143203012Y-93610000D01*
X144447855Y-93610000D01*
X144435526Y-93532164D01*
X144435526Y-93532161D01*
X144367432Y-93322589D01*
X144267386Y-93126239D01*
X144137857Y-92947958D01*
X143982041Y-92792142D01*
X143842318Y-92690627D01*
X143799653Y-92635297D01*
X143793674Y-92565684D01*
X143826280Y-92503889D01*
X143842313Y-92489994D01*
X143982365Y-92388242D01*
X144138242Y-92232365D01*
X144267815Y-92054022D01*
X144367895Y-91857606D01*
X144436015Y-91647951D01*
X144470500Y-91430222D01*
X144470500Y-91209778D01*
X144436015Y-90992049D01*
X144367895Y-90782394D01*
X144367895Y-90782393D01*
X144333237Y-90714375D01*
X144267815Y-90585978D01*
X144251260Y-90563192D01*
X144138247Y-90407641D01*
X144138243Y-90407636D01*
X143982363Y-90251756D01*
X143982358Y-90251752D01*
X143842745Y-90150318D01*
X143800079Y-90094989D01*
X143794100Y-90025375D01*
X143826705Y-89963580D01*
X143842745Y-89949682D01*
X143982358Y-89848247D01*
X143982356Y-89848247D01*
X143982365Y-89848242D01*
X144138242Y-89692365D01*
X144267815Y-89514022D01*
X144367895Y-89317606D01*
X144436015Y-89107951D01*
X144470500Y-88890222D01*
X144470500Y-88669778D01*
X144436015Y-88452049D01*
X144367895Y-88242394D01*
X144367895Y-88242393D01*
X144321505Y-88151349D01*
X144267815Y-88045978D01*
X144211910Y-87969031D01*
X144138247Y-87867641D01*
X144138243Y-87867636D01*
X143982363Y-87711756D01*
X143982358Y-87711752D01*
X143842745Y-87610318D01*
X143800079Y-87554989D01*
X143794100Y-87485375D01*
X143826705Y-87423580D01*
X143842745Y-87409682D01*
X143982358Y-87308247D01*
X143982356Y-87308247D01*
X143982365Y-87308242D01*
X144138242Y-87152365D01*
X144267815Y-86974022D01*
X144367895Y-86777606D01*
X144436015Y-86567951D01*
X144470500Y-86350222D01*
X144470500Y-86129778D01*
X144436015Y-85912049D01*
X144367895Y-85702394D01*
X144367895Y-85702393D01*
X144301351Y-85571796D01*
X144267815Y-85505978D01*
X144164756Y-85364128D01*
X144138247Y-85327641D01*
X144138243Y-85327636D01*
X143982363Y-85171756D01*
X143982358Y-85171752D01*
X143842745Y-85070318D01*
X143800079Y-85014989D01*
X143794100Y-84945375D01*
X143826705Y-84883580D01*
X143842745Y-84869682D01*
X143982358Y-84768247D01*
X143982356Y-84768247D01*
X143982365Y-84768242D01*
X144138242Y-84612365D01*
X144267815Y-84434022D01*
X144367895Y-84237606D01*
X144436015Y-84027951D01*
X144470500Y-83810222D01*
X144470500Y-83589778D01*
X144436015Y-83372049D01*
X144401955Y-83267221D01*
X144367896Y-83162396D01*
X144367895Y-83162393D01*
X144293948Y-83017267D01*
X144267815Y-82965978D01*
X144251260Y-82943192D01*
X144138247Y-82787641D01*
X144138243Y-82787636D01*
X143982363Y-82631756D01*
X143982358Y-82631752D01*
X143842319Y-82530008D01*
X143799653Y-82474678D01*
X143793674Y-82405065D01*
X143826279Y-82343270D01*
X143842319Y-82329372D01*
X143982035Y-82227862D01*
X143982041Y-82227857D01*
X144137857Y-82072041D01*
X144267386Y-81893760D01*
X144367432Y-81697410D01*
X144435526Y-81487838D01*
X144435526Y-81487835D01*
X144447855Y-81410000D01*
X143203012Y-81410000D01*
X143235925Y-81352993D01*
X143270000Y-81225826D01*
X143270000Y-81094174D01*
X143235925Y-80967007D01*
X143203012Y-80910000D01*
X144447855Y-80910000D01*
X144435526Y-80832164D01*
X144435526Y-80832161D01*
X144367432Y-80622589D01*
X144267386Y-80426239D01*
X144137857Y-80247958D01*
X143982041Y-80092142D01*
X143842318Y-79990627D01*
X143799653Y-79935297D01*
X143793674Y-79865684D01*
X143826280Y-79803889D01*
X143842313Y-79789994D01*
X143982365Y-79688242D01*
X144138242Y-79532365D01*
X144267815Y-79354022D01*
X144367895Y-79157606D01*
X144436015Y-78947951D01*
X144470500Y-78730222D01*
X144470500Y-78509778D01*
X144436015Y-78292049D01*
X144375892Y-78107007D01*
X144367896Y-78082396D01*
X144367895Y-78082393D01*
X144304006Y-77957007D01*
X144267815Y-77885978D01*
X144236585Y-77842993D01*
X144138247Y-77707641D01*
X144138243Y-77707636D01*
X143982363Y-77551756D01*
X143982358Y-77551752D01*
X143842745Y-77450318D01*
X143800079Y-77394989D01*
X143794100Y-77325375D01*
X143826705Y-77263580D01*
X143842745Y-77249682D01*
X143982358Y-77148247D01*
X143982356Y-77148247D01*
X143982365Y-77148242D01*
X144138242Y-76992365D01*
X144267815Y-76814022D01*
X144367895Y-76617606D01*
X144436015Y-76407951D01*
X144470500Y-76190222D01*
X144470500Y-75969778D01*
X144436015Y-75752049D01*
X144367895Y-75542394D01*
X144367895Y-75542393D01*
X144307849Y-75424549D01*
X144267815Y-75345978D01*
X144152180Y-75186819D01*
X144138247Y-75167641D01*
X144138243Y-75167636D01*
X143982363Y-75011756D01*
X143982358Y-75011752D01*
X143804025Y-74882187D01*
X143804024Y-74882186D01*
X143804022Y-74882185D01*
X143741096Y-74850122D01*
X143607606Y-74782104D01*
X143607603Y-74782103D01*
X143397952Y-74713985D01*
X143289086Y-74696742D01*
X143180222Y-74679500D01*
X142359778Y-74679500D01*
X142287201Y-74690995D01*
X142142047Y-74713985D01*
X141932396Y-74782103D01*
X141932393Y-74782104D01*
X141735974Y-74882187D01*
X141557641Y-75011752D01*
X141557636Y-75011756D01*
X141401756Y-75167636D01*
X141401752Y-75167641D01*
X141272187Y-75345974D01*
X141172104Y-75542393D01*
X141172103Y-75542396D01*
X141103985Y-75752047D01*
X141069500Y-75969778D01*
X141069500Y-76190221D01*
X141103985Y-76407952D01*
X141172103Y-76617603D01*
X141172104Y-76617606D01*
X141230961Y-76733116D01*
X141270136Y-76810001D01*
X141272187Y-76814025D01*
X141401752Y-76992358D01*
X141401756Y-76992363D01*
X141557636Y-77148243D01*
X141557641Y-77148247D01*
X141697254Y-77249682D01*
X141739920Y-77305012D01*
X141745899Y-77374625D01*
X141713293Y-77436420D01*
X141697254Y-77450318D01*
X141557641Y-77551752D01*
X141557636Y-77551756D01*
X141401756Y-77707636D01*
X141401752Y-77707641D01*
X141272187Y-77885974D01*
X141172104Y-78082393D01*
X141172103Y-78082396D01*
X141103985Y-78292047D01*
X141069500Y-78509778D01*
X141069500Y-78730221D01*
X141103985Y-78947952D01*
X141172103Y-79157603D01*
X141172104Y-79157606D01*
X141229465Y-79270181D01*
X141262793Y-79335590D01*
X141272187Y-79354025D01*
X141401752Y-79532358D01*
X141401756Y-79532363D01*
X141557636Y-79688243D01*
X141557641Y-79688247D01*
X141697680Y-79789991D01*
X141740346Y-79845320D01*
X141746325Y-79914934D01*
X141713720Y-79976729D01*
X141697681Y-79990627D01*
X141557959Y-80092142D01*
X141557958Y-80092142D01*
X141402142Y-80247958D01*
X141272613Y-80426239D01*
X141172567Y-80622589D01*
X141104473Y-80832161D01*
X141104473Y-80832164D01*
X141092145Y-80910000D01*
X142336988Y-80910000D01*
X142304075Y-80967007D01*
X142270000Y-81094174D01*
X142270000Y-81225826D01*
X142304075Y-81352993D01*
X142336988Y-81410000D01*
X141092145Y-81410000D01*
X141104473Y-81487835D01*
X141104473Y-81487838D01*
X141172567Y-81697410D01*
X141272613Y-81893760D01*
X141402142Y-82072041D01*
X141557958Y-82227857D01*
X141557964Y-82227862D01*
X141697680Y-82329372D01*
X141740346Y-82384702D01*
X141746325Y-82454315D01*
X141713719Y-82516110D01*
X141697681Y-82530008D01*
X141557636Y-82631756D01*
X141401756Y-82787636D01*
X141401752Y-82787641D01*
X141272186Y-82965974D01*
X141246051Y-83017267D01*
X141198076Y-83068062D01*
X141130254Y-83084856D01*
X141064120Y-83062318D01*
X141047886Y-83048651D01*
X139986819Y-81987584D01*
X139953334Y-81926261D01*
X139950500Y-81899903D01*
X139950500Y-76920946D01*
X139950500Y-76920943D01*
X139927001Y-76833241D01*
X139920774Y-76809999D01*
X139920774Y-76809998D01*
X139909579Y-76768221D01*
X139909578Y-76768219D01*
X139909577Y-76768215D01*
X139880459Y-76717782D01*
X139830520Y-76631284D01*
X139718716Y-76519480D01*
X139718715Y-76519479D01*
X139714385Y-76515149D01*
X139714374Y-76515139D01*
X137387590Y-74188355D01*
X137387588Y-74188352D01*
X137268717Y-74069481D01*
X137268716Y-74069480D01*
X137175898Y-74015892D01*
X137131785Y-73990423D01*
X136979057Y-73949499D01*
X136820943Y-73949499D01*
X136813347Y-73949499D01*
X136813331Y-73949500D01*
X129820940Y-73949500D01*
X129780019Y-73960464D01*
X129780019Y-73960465D01*
X129742751Y-73970451D01*
X129668214Y-73990423D01*
X129668209Y-73990426D01*
X129531290Y-74069475D01*
X129531282Y-74069481D01*
X128359479Y-75241284D01*
X128334491Y-75284566D01*
X128323929Y-75302861D01*
X128280423Y-75378215D01*
X128239499Y-75530943D01*
X128239499Y-75530945D01*
X128239499Y-75699046D01*
X128239500Y-75699059D01*
X128239500Y-76864281D01*
X128219815Y-76931320D01*
X128171795Y-76974765D01*
X128132185Y-76994947D01*
X128132184Y-76994948D01*
X127960213Y-77119890D01*
X127809890Y-77270213D01*
X127684949Y-77442182D01*
X127680484Y-77450946D01*
X127632509Y-77501742D01*
X127564688Y-77518536D01*
X127498553Y-77495998D01*
X127459516Y-77450946D01*
X127455050Y-77442182D01*
X127330109Y-77270213D01*
X127179794Y-77119898D01*
X127179788Y-77119893D01*
X127101615Y-77063097D01*
X127058949Y-77007767D01*
X127050500Y-76962779D01*
X127050500Y-75512230D01*
X127070185Y-75445191D01*
X127086819Y-75424549D01*
X129374549Y-73136819D01*
X129435872Y-73103334D01*
X129462230Y-73100500D01*
X167587770Y-73100500D01*
X167654809Y-73120185D01*
X167675451Y-73136819D01*
X170213181Y-75674548D01*
X170246666Y-75735871D01*
X170249500Y-75762229D01*
X170249500Y-76719699D01*
X170229815Y-76786738D01*
X170177011Y-76832493D01*
X170164507Y-76837403D01*
X170131962Y-76848188D01*
X170080668Y-76865185D01*
X170080663Y-76865187D01*
X169931342Y-76957289D01*
X169807289Y-77081342D01*
X169715187Y-77230663D01*
X169715185Y-77230668D01*
X169707133Y-77254969D01*
X169683803Y-77325375D01*
X169660001Y-77397204D01*
X169660000Y-77397205D01*
X169655823Y-77438102D01*
X169629427Y-77502793D01*
X169572247Y-77542945D01*
X169532465Y-77549500D01*
X161799547Y-77549500D01*
X161779126Y-77543503D01*
X161757877Y-77542289D01*
X161736406Y-77530959D01*
X161732508Y-77529815D01*
X161726662Y-77525818D01*
X161622744Y-77450318D01*
X161580078Y-77394989D01*
X161574099Y-77325375D01*
X161606704Y-77263580D01*
X161622736Y-77249687D01*
X161762365Y-77148242D01*
X161918242Y-76992365D01*
X162047815Y-76814022D01*
X162147895Y-76617606D01*
X162216015Y-76407951D01*
X162250500Y-76190222D01*
X162250500Y-75969778D01*
X162216015Y-75752049D01*
X162147895Y-75542394D01*
X162147895Y-75542393D01*
X162087849Y-75424549D01*
X162047815Y-75345978D01*
X161932180Y-75186819D01*
X161918247Y-75167641D01*
X161918243Y-75167636D01*
X161762363Y-75011756D01*
X161762358Y-75011752D01*
X161584025Y-74882187D01*
X161584024Y-74882186D01*
X161584022Y-74882185D01*
X161521096Y-74850122D01*
X161387606Y-74782104D01*
X161387603Y-74782103D01*
X161177952Y-74713985D01*
X161069086Y-74696742D01*
X160960222Y-74679500D01*
X160139778Y-74679500D01*
X160067201Y-74690995D01*
X159922047Y-74713985D01*
X159712396Y-74782103D01*
X159712393Y-74782104D01*
X159515974Y-74882187D01*
X159337641Y-75011752D01*
X159337636Y-75011756D01*
X159181756Y-75167636D01*
X159181752Y-75167641D01*
X159052187Y-75345974D01*
X158952104Y-75542393D01*
X158952103Y-75542396D01*
X158883985Y-75752047D01*
X158849500Y-75969778D01*
X158849500Y-76190221D01*
X158883985Y-76407952D01*
X158952103Y-76617603D01*
X158952104Y-76617606D01*
X159010961Y-76733116D01*
X159050136Y-76810001D01*
X159052187Y-76814025D01*
X159181752Y-76992358D01*
X159181756Y-76992363D01*
X159337636Y-77148243D01*
X159337641Y-77148247D01*
X159477254Y-77249682D01*
X159519920Y-77305012D01*
X159525899Y-77374625D01*
X159493293Y-77436420D01*
X159477254Y-77450318D01*
X159337641Y-77551752D01*
X159337636Y-77551756D01*
X159181756Y-77707636D01*
X159181752Y-77707641D01*
X159052187Y-77885974D01*
X158952104Y-78082393D01*
X158952103Y-78082396D01*
X158883985Y-78292047D01*
X158849500Y-78509778D01*
X158849500Y-78730221D01*
X158883985Y-78947952D01*
X158952103Y-79157603D01*
X158952104Y-79157606D01*
X159009465Y-79270181D01*
X159042793Y-79335590D01*
X159052187Y-79354025D01*
X159181752Y-79532358D01*
X159181756Y-79532363D01*
X159337636Y-79688243D01*
X159337641Y-79688247D01*
X159477680Y-79789991D01*
X159520346Y-79845320D01*
X159526325Y-79914934D01*
X159493720Y-79976729D01*
X159477681Y-79990627D01*
X159337959Y-80092142D01*
X159337958Y-80092142D01*
X159182142Y-80247958D01*
X159052613Y-80426239D01*
X158952567Y-80622589D01*
X158884473Y-80832161D01*
X158884473Y-80832164D01*
X158872145Y-80910000D01*
X160116988Y-80910000D01*
X160084075Y-80967007D01*
X160050000Y-81094174D01*
X160050000Y-81225826D01*
X160084075Y-81352993D01*
X160116988Y-81410000D01*
X158872145Y-81410000D01*
X158884473Y-81487835D01*
X158884473Y-81487838D01*
X158952567Y-81697410D01*
X159052613Y-81893760D01*
X159182142Y-82072041D01*
X159337958Y-82227857D01*
X159337964Y-82227862D01*
X159477680Y-82329372D01*
X159520346Y-82384702D01*
X159526325Y-82454315D01*
X159493719Y-82516110D01*
X159477681Y-82530008D01*
X159337636Y-82631756D01*
X159181756Y-82787636D01*
X159181752Y-82787641D01*
X159052187Y-82965974D01*
X158952104Y-83162393D01*
X158952103Y-83162396D01*
X158883985Y-83372047D01*
X158849500Y-83589778D01*
X158849500Y-83810221D01*
X158883985Y-84027952D01*
X158952103Y-84237603D01*
X158952104Y-84237606D01*
X159052187Y-84434025D01*
X159181752Y-84612358D01*
X159181756Y-84612363D01*
X159337636Y-84768243D01*
X159337641Y-84768247D01*
X159477254Y-84869682D01*
X159519920Y-84925012D01*
X159525899Y-84994625D01*
X159493293Y-85056420D01*
X159477254Y-85070318D01*
X159337641Y-85171752D01*
X159337636Y-85171756D01*
X159181756Y-85327636D01*
X159181752Y-85327641D01*
X159052187Y-85505974D01*
X158952104Y-85702393D01*
X158952105Y-85702394D01*
X158883985Y-85912047D01*
X158849500Y-86129778D01*
X158849500Y-86350221D01*
X158883985Y-86567952D01*
X158952103Y-86777603D01*
X158952104Y-86777606D01*
X159052187Y-86974025D01*
X159181752Y-87152358D01*
X159181756Y-87152363D01*
X159337636Y-87308243D01*
X159337641Y-87308247D01*
X159477254Y-87409682D01*
X159519920Y-87465012D01*
X159525899Y-87534625D01*
X159493293Y-87596420D01*
X159477254Y-87610318D01*
X159337641Y-87711752D01*
X159337636Y-87711756D01*
X159181756Y-87867636D01*
X159181752Y-87867641D01*
X159052187Y-88045974D01*
X158952104Y-88242393D01*
X158952103Y-88242396D01*
X158883985Y-88452047D01*
X158849500Y-88669778D01*
X158849500Y-88890221D01*
X158883985Y-89107952D01*
X158952103Y-89317603D01*
X158952104Y-89317606D01*
X159052187Y-89514025D01*
X159181752Y-89692358D01*
X159181756Y-89692363D01*
X159337636Y-89848243D01*
X159337641Y-89848247D01*
X159477254Y-89949682D01*
X159519920Y-90005012D01*
X159525899Y-90074625D01*
X159493293Y-90136420D01*
X159477254Y-90150318D01*
X159337641Y-90251752D01*
X159337636Y-90251756D01*
X159181756Y-90407636D01*
X159181752Y-90407641D01*
X159052187Y-90585974D01*
X158952104Y-90782393D01*
X158952103Y-90782396D01*
X158883985Y-90992047D01*
X158849500Y-91209778D01*
X158849500Y-91430221D01*
X158883985Y-91647952D01*
X158952103Y-91857603D01*
X158952104Y-91857606D01*
X159052187Y-92054025D01*
X159181752Y-92232358D01*
X159181756Y-92232363D01*
X159337636Y-92388243D01*
X159337641Y-92388247D01*
X159477254Y-92489682D01*
X159519920Y-92545012D01*
X159525899Y-92614625D01*
X159493293Y-92676420D01*
X159477254Y-92690318D01*
X159337641Y-92791752D01*
X159337636Y-92791756D01*
X159181756Y-92947636D01*
X159181752Y-92947641D01*
X159052187Y-93125974D01*
X158952104Y-93322393D01*
X158952103Y-93322396D01*
X158883985Y-93532047D01*
X158851278Y-93738555D01*
X158849500Y-93749778D01*
X158849500Y-93970222D01*
X158852884Y-93991588D01*
X158883985Y-94187952D01*
X158952103Y-94397603D01*
X158952104Y-94397606D01*
X159052187Y-94594025D01*
X159181752Y-94772358D01*
X159181756Y-94772363D01*
X159337636Y-94928243D01*
X159337641Y-94928247D01*
X159477254Y-95029682D01*
X159519920Y-95085012D01*
X159525899Y-95154625D01*
X159493293Y-95216420D01*
X159477254Y-95230318D01*
X159337641Y-95331752D01*
X159337636Y-95331756D01*
X159181756Y-95487636D01*
X159181752Y-95487641D01*
X159052187Y-95665974D01*
X158952104Y-95862393D01*
X158952103Y-95862396D01*
X158883985Y-96072047D01*
X158869826Y-96161442D01*
X158849500Y-96289778D01*
X158849500Y-96510222D01*
X158850863Y-96518825D01*
X158883985Y-96727952D01*
X158952103Y-96937603D01*
X158952104Y-96937606D01*
X159052187Y-97134025D01*
X159181752Y-97312358D01*
X159181756Y-97312363D01*
X159337636Y-97468243D01*
X159337641Y-97468247D01*
X159477254Y-97569682D01*
X159519920Y-97625012D01*
X159525899Y-97694625D01*
X159493293Y-97756420D01*
X159477254Y-97770318D01*
X159337641Y-97871752D01*
X159337636Y-97871756D01*
X159181756Y-98027636D01*
X159181752Y-98027641D01*
X159052187Y-98205974D01*
X158952104Y-98402393D01*
X158952103Y-98402396D01*
X158883985Y-98612047D01*
X158849500Y-98829778D01*
X158849500Y-99050221D01*
X158883985Y-99267952D01*
X158952103Y-99477603D01*
X158952104Y-99477606D01*
X159052187Y-99674025D01*
X159181752Y-99852358D01*
X159181756Y-99852363D01*
X159337636Y-100008243D01*
X159337641Y-100008247D01*
X159477254Y-100109682D01*
X159519920Y-100165012D01*
X159525899Y-100234625D01*
X159493293Y-100296420D01*
X159477254Y-100310318D01*
X159337641Y-100411752D01*
X159337636Y-100411756D01*
X159181756Y-100567636D01*
X159181752Y-100567641D01*
X159052187Y-100745974D01*
X158952104Y-100942393D01*
X158952103Y-100942396D01*
X158883985Y-101152047D01*
X158849500Y-101369778D01*
X158849500Y-101590221D01*
X158883985Y-101807952D01*
X158952103Y-102017603D01*
X158952104Y-102017606D01*
X159052187Y-102214025D01*
X159181752Y-102392358D01*
X159181756Y-102392363D01*
X159337636Y-102548243D01*
X159337641Y-102548247D01*
X159477254Y-102649682D01*
X159519920Y-102705012D01*
X159525899Y-102774625D01*
X159493293Y-102836420D01*
X159477254Y-102850318D01*
X159337641Y-102951752D01*
X159337636Y-102951756D01*
X159181756Y-103107636D01*
X159181752Y-103107641D01*
X159052187Y-103285974D01*
X158952104Y-103482393D01*
X158952103Y-103482396D01*
X158883985Y-103692047D01*
X158871606Y-103770208D01*
X158849500Y-103909778D01*
X158849500Y-104130222D01*
X158849747Y-104131782D01*
X158883985Y-104347952D01*
X158952103Y-104557603D01*
X158952104Y-104557606D01*
X159052187Y-104754025D01*
X159181752Y-104932358D01*
X159181756Y-104932363D01*
X159337636Y-105088243D01*
X159337641Y-105088247D01*
X159477680Y-105189991D01*
X159520346Y-105245320D01*
X159526325Y-105314934D01*
X159493720Y-105376729D01*
X159477681Y-105390627D01*
X159337959Y-105492142D01*
X159337958Y-105492142D01*
X159182142Y-105647958D01*
X159052613Y-105826239D01*
X158952567Y-106022589D01*
X158884473Y-106232161D01*
X158884473Y-106232164D01*
X158872145Y-106310000D01*
X160116988Y-106310000D01*
X160084075Y-106367007D01*
X160050000Y-106494174D01*
X160050000Y-106625826D01*
X160084075Y-106752993D01*
X160116988Y-106810000D01*
X158872145Y-106810000D01*
X158884473Y-106887835D01*
X158884473Y-106887838D01*
X158952567Y-107097410D01*
X159052613Y-107293760D01*
X159182142Y-107472041D01*
X159337958Y-107627857D01*
X159337964Y-107627862D01*
X159477680Y-107729372D01*
X159520346Y-107784702D01*
X159526325Y-107854315D01*
X159493719Y-107916110D01*
X159477681Y-107930008D01*
X159337636Y-108031756D01*
X159181756Y-108187636D01*
X159181752Y-108187641D01*
X159052187Y-108365974D01*
X158952104Y-108562393D01*
X158952103Y-108562396D01*
X158883985Y-108772047D01*
X158849500Y-108989778D01*
X158849500Y-109210221D01*
X158883985Y-109427952D01*
X158952103Y-109637603D01*
X158952104Y-109637606D01*
X159007019Y-109745380D01*
X159045146Y-109820208D01*
X159052187Y-109834025D01*
X159181752Y-110012358D01*
X159181756Y-110012363D01*
X159337634Y-110168241D01*
X159337641Y-110168247D01*
X159477254Y-110269682D01*
X159519920Y-110325012D01*
X159525899Y-110394625D01*
X159493293Y-110456420D01*
X159477254Y-110470318D01*
X159337641Y-110571752D01*
X159337636Y-110571756D01*
X159181756Y-110727636D01*
X159181752Y-110727641D01*
X159052187Y-110905974D01*
X158952104Y-111102393D01*
X158952103Y-111102396D01*
X158883985Y-111312047D01*
X158867139Y-111418412D01*
X158849500Y-111529778D01*
X158849500Y-111750222D01*
X158859803Y-111815270D01*
X158883985Y-111967952D01*
X158952103Y-112177603D01*
X158952104Y-112177606D01*
X159052187Y-112374025D01*
X159181752Y-112552358D01*
X159181756Y-112552363D01*
X159337636Y-112708243D01*
X159337641Y-112708247D01*
X159477254Y-112809682D01*
X159519920Y-112865012D01*
X159525899Y-112934625D01*
X159493293Y-112996420D01*
X159477254Y-113010318D01*
X159337641Y-113111752D01*
X159337636Y-113111756D01*
X159181756Y-113267636D01*
X159181752Y-113267641D01*
X159052187Y-113445974D01*
X158952104Y-113642393D01*
X158952103Y-113642396D01*
X158883985Y-113852047D01*
X158849500Y-114069778D01*
X158849500Y-114290221D01*
X158883985Y-114507952D01*
X158952103Y-114717603D01*
X158952104Y-114717606D01*
X159052187Y-114914025D01*
X159181752Y-115092358D01*
X159181756Y-115092363D01*
X159337636Y-115248243D01*
X159337641Y-115248247D01*
X159477254Y-115349682D01*
X159519920Y-115405012D01*
X159525899Y-115474625D01*
X159493293Y-115536420D01*
X159477254Y-115550318D01*
X159337641Y-115651752D01*
X159337636Y-115651756D01*
X159181756Y-115807636D01*
X159181752Y-115807641D01*
X159052187Y-115985974D01*
X158952104Y-116182393D01*
X158952103Y-116182396D01*
X158883985Y-116392047D01*
X158849500Y-116609778D01*
X158849500Y-116830221D01*
X158883985Y-117047952D01*
X158952103Y-117257603D01*
X158952104Y-117257606D01*
X159052187Y-117454025D01*
X159181752Y-117632358D01*
X159181756Y-117632363D01*
X159337636Y-117788243D01*
X159337641Y-117788247D01*
X159477680Y-117889991D01*
X159520346Y-117945320D01*
X159526325Y-118014934D01*
X159493720Y-118076729D01*
X159477681Y-118090627D01*
X159337959Y-118192142D01*
X159337958Y-118192142D01*
X159182142Y-118347958D01*
X159052613Y-118526239D01*
X158952567Y-118722589D01*
X158884473Y-118932161D01*
X158884473Y-118932164D01*
X158872145Y-119010000D01*
X160116988Y-119010000D01*
X160084075Y-119067007D01*
X160050000Y-119194174D01*
X160050000Y-119325826D01*
X160084075Y-119452993D01*
X160116988Y-119510000D01*
X158872145Y-119510000D01*
X158884473Y-119587835D01*
X158884473Y-119587838D01*
X158952567Y-119797410D01*
X159052613Y-119993760D01*
X159182142Y-120172041D01*
X159337958Y-120327857D01*
X159337964Y-120327862D01*
X159477680Y-120429372D01*
X159520346Y-120484702D01*
X159526325Y-120554315D01*
X159493719Y-120616110D01*
X159477681Y-120630008D01*
X159337636Y-120731756D01*
X159181756Y-120887636D01*
X159181752Y-120887641D01*
X159052187Y-121065974D01*
X158952104Y-121262393D01*
X158952103Y-121262396D01*
X158883985Y-121472047D01*
X158858454Y-121633242D01*
X158849500Y-121689778D01*
X158849500Y-121910222D01*
X158861990Y-121989082D01*
X158883985Y-122127952D01*
X158952103Y-122337603D01*
X158952104Y-122337606D01*
X159004493Y-122440423D01*
X159044775Y-122519480D01*
X159052187Y-122534025D01*
X159181752Y-122712358D01*
X159181756Y-122712363D01*
X159337636Y-122868243D01*
X159337641Y-122868247D01*
X159477254Y-122969682D01*
X159519920Y-123025012D01*
X159525899Y-123094625D01*
X159493293Y-123156420D01*
X159477254Y-123170318D01*
X159337641Y-123271752D01*
X159337636Y-123271756D01*
X159181756Y-123427636D01*
X159181752Y-123427641D01*
X159052187Y-123605974D01*
X158952104Y-123802393D01*
X158952103Y-123802396D01*
X158883985Y-124012047D01*
X158849500Y-124229778D01*
X158849500Y-124450221D01*
X158883985Y-124667952D01*
X158952103Y-124877603D01*
X158952104Y-124877606D01*
X159052187Y-125074025D01*
X159181752Y-125252358D01*
X159181756Y-125252363D01*
X159337636Y-125408243D01*
X159337641Y-125408247D01*
X159493192Y-125521260D01*
X159515978Y-125537815D01*
X159644375Y-125603237D01*
X159712393Y-125637895D01*
X159712396Y-125637896D01*
X159817221Y-125671955D01*
X159922049Y-125706015D01*
X160139778Y-125740500D01*
X160139779Y-125740500D01*
X160960221Y-125740500D01*
X160960222Y-125740500D01*
X161177951Y-125706015D01*
X161387606Y-125637895D01*
X161584022Y-125537815D01*
X161762365Y-125408242D01*
X161918242Y-125252365D01*
X162047815Y-125074022D01*
X162081352Y-125008204D01*
X162129326Y-124957409D01*
X162191836Y-124940500D01*
X164717294Y-124940500D01*
X164749386Y-124944725D01*
X164756272Y-124946570D01*
X164770943Y-124950501D01*
X164770945Y-124950501D01*
X164929054Y-124950501D01*
X164929057Y-124950501D01*
X165081785Y-124909577D01*
X165218716Y-124830519D01*
X166462416Y-123586819D01*
X166523739Y-123553334D01*
X166550097Y-123550500D01*
X167385501Y-123550500D01*
X167452540Y-123570185D01*
X167498295Y-123622989D01*
X167509501Y-123674500D01*
X167509501Y-123847876D01*
X167515908Y-123907483D01*
X167566202Y-124042328D01*
X167566206Y-124042335D01*
X167652452Y-124157544D01*
X167652455Y-124157547D01*
X167767664Y-124243793D01*
X167767671Y-124243797D01*
X167902517Y-124294091D01*
X167902516Y-124294091D01*
X167909444Y-124294835D01*
X167962127Y-124300500D01*
X169757872Y-124300499D01*
X169817483Y-124294091D01*
X169952331Y-124243796D01*
X170067546Y-124157546D01*
X170153796Y-124042331D01*
X170202810Y-123910916D01*
X170244681Y-123854984D01*
X170310145Y-123830566D01*
X170378418Y-123845417D01*
X170406673Y-123866569D01*
X170520213Y-123980109D01*
X170692179Y-124105048D01*
X170692181Y-124105049D01*
X170692184Y-124105051D01*
X170881588Y-124201557D01*
X171083757Y-124267246D01*
X171293713Y-124300500D01*
X171293714Y-124300500D01*
X171506286Y-124300500D01*
X171506287Y-124300500D01*
X171716243Y-124267246D01*
X171918412Y-124201557D01*
X172107816Y-124105051D01*
X172194138Y-124042335D01*
X172279786Y-123980109D01*
X172279788Y-123980106D01*
X172279792Y-123980104D01*
X172430104Y-123829792D01*
X172430106Y-123829788D01*
X172430109Y-123829786D01*
X172497764Y-123736666D01*
X172555051Y-123657816D01*
X172559793Y-123648508D01*
X172607763Y-123597711D01*
X172675583Y-123580911D01*
X172741719Y-123603445D01*
X172780763Y-123648500D01*
X172785373Y-123657547D01*
X172824728Y-123711716D01*
X173457037Y-123079408D01*
X173474075Y-123142993D01*
X173539901Y-123257007D01*
X173632993Y-123350099D01*
X173747007Y-123415925D01*
X173810590Y-123432962D01*
X173178282Y-124065269D01*
X173178282Y-124065270D01*
X173232449Y-124104624D01*
X173421782Y-124201095D01*
X173623870Y-124266757D01*
X173833754Y-124300000D01*
X174046246Y-124300000D01*
X174256127Y-124266757D01*
X174256130Y-124266757D01*
X174458217Y-124201095D01*
X174647554Y-124104622D01*
X174701716Y-124065270D01*
X174701717Y-124065270D01*
X174069408Y-123432962D01*
X174132993Y-123415925D01*
X174247007Y-123350099D01*
X174340099Y-123257007D01*
X174405925Y-123142993D01*
X174422962Y-123079408D01*
X175055270Y-123711717D01*
X175055270Y-123711716D01*
X175094622Y-123657554D01*
X175191095Y-123468217D01*
X175256757Y-123266130D01*
X175256757Y-123266127D01*
X175290000Y-123056246D01*
X175290000Y-122843753D01*
X175256757Y-122633872D01*
X175256757Y-122633869D01*
X175191095Y-122431782D01*
X175094624Y-122242449D01*
X175055270Y-122188282D01*
X175055269Y-122188282D01*
X174422962Y-122820590D01*
X174405925Y-122757007D01*
X174340099Y-122642993D01*
X174247007Y-122549901D01*
X174132993Y-122484075D01*
X174069409Y-122467037D01*
X174701716Y-121834728D01*
X174647550Y-121795375D01*
X174458217Y-121698904D01*
X174256129Y-121633242D01*
X174046246Y-121600000D01*
X173833754Y-121600000D01*
X173623872Y-121633242D01*
X173623869Y-121633242D01*
X173421782Y-121698904D01*
X173232439Y-121795380D01*
X173178282Y-121834727D01*
X173178282Y-121834728D01*
X173810591Y-122467037D01*
X173747007Y-122484075D01*
X173632993Y-122549901D01*
X173539901Y-122642993D01*
X173474075Y-122757007D01*
X173457037Y-122820591D01*
X172824728Y-122188282D01*
X172824727Y-122188282D01*
X172785380Y-122242440D01*
X172785376Y-122242446D01*
X172780760Y-122251505D01*
X172732781Y-122302297D01*
X172664959Y-122319087D01*
X172598826Y-122296543D01*
X172559794Y-122251493D01*
X172555051Y-122242184D01*
X172555049Y-122242181D01*
X172555048Y-122242179D01*
X172430109Y-122070213D01*
X172333498Y-121973602D01*
X172279792Y-121919896D01*
X172198226Y-121860635D01*
X172195017Y-121857955D01*
X172177826Y-121832248D01*
X172158949Y-121807767D01*
X172157969Y-121802553D01*
X172156179Y-121799875D01*
X172156040Y-121792280D01*
X172150500Y-121762779D01*
X172150500Y-118150893D01*
X172170185Y-118083854D01*
X172201614Y-118050576D01*
X172229792Y-118030104D01*
X172380104Y-117879792D01*
X172380106Y-117879788D01*
X172380109Y-117879786D01*
X172465890Y-117761717D01*
X172505051Y-117707816D01*
X172509793Y-117698508D01*
X172557763Y-117647711D01*
X172625583Y-117630911D01*
X172691719Y-117653445D01*
X172730763Y-117698500D01*
X172735373Y-117707547D01*
X172774728Y-117761716D01*
X173407037Y-117129408D01*
X173424075Y-117192993D01*
X173489901Y-117307007D01*
X173582993Y-117400099D01*
X173697007Y-117465925D01*
X173760590Y-117482962D01*
X173128282Y-118115269D01*
X173128282Y-118115270D01*
X173182449Y-118154624D01*
X173371782Y-118251095D01*
X173573870Y-118316757D01*
X173783754Y-118350000D01*
X173996246Y-118350000D01*
X174206127Y-118316757D01*
X174206130Y-118316757D01*
X174408217Y-118251095D01*
X174597554Y-118154622D01*
X174651716Y-118115270D01*
X174651717Y-118115270D01*
X174019408Y-117482962D01*
X174082993Y-117465925D01*
X174197007Y-117400099D01*
X174290099Y-117307007D01*
X174355925Y-117192993D01*
X174372962Y-117129409D01*
X175005270Y-117761717D01*
X175005270Y-117761716D01*
X175044622Y-117707554D01*
X175141095Y-117518217D01*
X175206757Y-117316130D01*
X175206757Y-117316127D01*
X175240000Y-117106246D01*
X175240000Y-116893753D01*
X175206757Y-116683872D01*
X175206757Y-116683869D01*
X175141095Y-116481782D01*
X175044624Y-116292449D01*
X175005270Y-116238282D01*
X175005269Y-116238282D01*
X174372962Y-116870590D01*
X174355925Y-116807007D01*
X174290099Y-116692993D01*
X174197007Y-116599901D01*
X174082993Y-116534075D01*
X174019409Y-116517037D01*
X174651716Y-115884728D01*
X174597550Y-115845375D01*
X174408217Y-115748904D01*
X174206129Y-115683242D01*
X173996246Y-115650000D01*
X173783754Y-115650000D01*
X173573872Y-115683242D01*
X173573869Y-115683242D01*
X173371782Y-115748904D01*
X173182439Y-115845380D01*
X173128282Y-115884727D01*
X173128282Y-115884728D01*
X173760591Y-116517037D01*
X173697007Y-116534075D01*
X173582993Y-116599901D01*
X173489901Y-116692993D01*
X173424075Y-116807007D01*
X173407037Y-116870591D01*
X172774728Y-116238282D01*
X172774727Y-116238282D01*
X172735380Y-116292440D01*
X172735376Y-116292446D01*
X172730760Y-116301505D01*
X172682781Y-116352297D01*
X172614959Y-116369087D01*
X172548826Y-116346543D01*
X172509794Y-116301493D01*
X172505051Y-116292184D01*
X172505049Y-116292181D01*
X172505048Y-116292179D01*
X172380109Y-116120213D01*
X172282023Y-116022127D01*
X172229792Y-115969896D01*
X172196547Y-115945742D01*
X172191874Y-115941566D01*
X172176613Y-115917002D01*
X172158949Y-115894094D01*
X172157461Y-115886174D01*
X172155003Y-115882217D01*
X172155132Y-115873770D01*
X172150500Y-115849106D01*
X172150500Y-111805772D01*
X172170185Y-111738733D01*
X172174166Y-111732908D01*
X172265051Y-111607816D01*
X172269793Y-111598508D01*
X172317763Y-111547711D01*
X172385583Y-111530911D01*
X172451719Y-111553445D01*
X172490763Y-111598500D01*
X172495373Y-111607547D01*
X172534728Y-111661716D01*
X173167037Y-111029408D01*
X173184075Y-111092993D01*
X173249901Y-111207007D01*
X173342993Y-111300099D01*
X173457007Y-111365925D01*
X173520590Y-111382962D01*
X172888282Y-112015269D01*
X172888282Y-112015270D01*
X172942449Y-112054624D01*
X173131782Y-112151095D01*
X173333870Y-112216757D01*
X173543754Y-112250000D01*
X173756246Y-112250000D01*
X173966127Y-112216757D01*
X173966130Y-112216757D01*
X174168217Y-112151095D01*
X174357554Y-112054622D01*
X174411716Y-112015270D01*
X174411717Y-112015270D01*
X173779408Y-111382962D01*
X173842993Y-111365925D01*
X173957007Y-111300099D01*
X174050099Y-111207007D01*
X174115925Y-111092993D01*
X174132962Y-111029408D01*
X174765270Y-111661717D01*
X174765270Y-111661716D01*
X174804622Y-111607554D01*
X174901095Y-111418217D01*
X174966757Y-111216130D01*
X174966757Y-111216127D01*
X175000000Y-111006246D01*
X175000000Y-110793753D01*
X174966757Y-110583872D01*
X174966757Y-110583869D01*
X174901095Y-110381782D01*
X174804624Y-110192449D01*
X174765270Y-110138282D01*
X174765269Y-110138282D01*
X174132962Y-110770590D01*
X174115925Y-110707007D01*
X174050099Y-110592993D01*
X173957007Y-110499901D01*
X173842993Y-110434075D01*
X173779409Y-110417037D01*
X174411716Y-109784728D01*
X174357550Y-109745375D01*
X174168217Y-109648904D01*
X173966129Y-109583242D01*
X173756246Y-109550000D01*
X173543754Y-109550000D01*
X173333872Y-109583242D01*
X173333869Y-109583242D01*
X173131782Y-109648904D01*
X172942439Y-109745380D01*
X172888282Y-109784727D01*
X172888282Y-109784728D01*
X173520591Y-110417037D01*
X173457007Y-110434075D01*
X173342993Y-110499901D01*
X173249901Y-110592993D01*
X173184075Y-110707007D01*
X173167037Y-110770591D01*
X172534728Y-110138282D01*
X172534727Y-110138282D01*
X172495380Y-110192440D01*
X172495376Y-110192446D01*
X172490760Y-110201505D01*
X172488123Y-110204295D01*
X172487190Y-110208020D01*
X172464318Y-110229496D01*
X172442781Y-110252297D01*
X172439055Y-110253219D01*
X172436256Y-110255848D01*
X172405405Y-110261549D01*
X172374959Y-110269087D01*
X172371325Y-110267848D01*
X172367550Y-110268546D01*
X172338513Y-110256663D01*
X172308826Y-110246543D01*
X172305408Y-110243115D01*
X172302886Y-110242083D01*
X172296188Y-110233868D01*
X172278726Y-110216354D01*
X172273740Y-110209239D01*
X172265051Y-110192184D01*
X172173588Y-110066294D01*
X172172946Y-110065378D01*
X172162101Y-110033251D01*
X172150702Y-110001302D01*
X172150645Y-109999315D01*
X172150599Y-109999178D01*
X172150637Y-109999026D01*
X172150500Y-109994225D01*
X172150500Y-105505772D01*
X172170185Y-105438733D01*
X172174166Y-105432908D01*
X172265051Y-105307816D01*
X172269793Y-105298508D01*
X172317763Y-105247711D01*
X172385583Y-105230911D01*
X172451719Y-105253445D01*
X172490763Y-105298500D01*
X172495373Y-105307547D01*
X172534728Y-105361716D01*
X173167037Y-104729408D01*
X173184075Y-104792993D01*
X173249901Y-104907007D01*
X173342993Y-105000099D01*
X173457007Y-105065925D01*
X173520590Y-105082962D01*
X172888282Y-105715269D01*
X172888282Y-105715270D01*
X172942449Y-105754624D01*
X173131782Y-105851095D01*
X173333870Y-105916757D01*
X173543754Y-105950000D01*
X173756246Y-105950000D01*
X173966127Y-105916757D01*
X173966130Y-105916757D01*
X174168217Y-105851095D01*
X174357554Y-105754622D01*
X174411716Y-105715270D01*
X174411717Y-105715270D01*
X173779408Y-105082962D01*
X173842993Y-105065925D01*
X173957007Y-105000099D01*
X174050099Y-104907007D01*
X174115925Y-104792993D01*
X174132962Y-104729408D01*
X174765270Y-105361717D01*
X174765270Y-105361716D01*
X174804622Y-105307554D01*
X174901095Y-105118217D01*
X174966757Y-104916130D01*
X174966757Y-104916127D01*
X175000000Y-104706246D01*
X175000000Y-104493753D01*
X174966757Y-104283872D01*
X174966757Y-104283869D01*
X174901095Y-104081782D01*
X174804624Y-103892449D01*
X174765270Y-103838282D01*
X174765269Y-103838282D01*
X174132962Y-104470590D01*
X174115925Y-104407007D01*
X174050099Y-104292993D01*
X173957007Y-104199901D01*
X173842993Y-104134075D01*
X173779409Y-104117037D01*
X174411716Y-103484728D01*
X174357550Y-103445375D01*
X174168217Y-103348904D01*
X173966129Y-103283242D01*
X173756246Y-103250000D01*
X173543754Y-103250000D01*
X173333872Y-103283242D01*
X173333869Y-103283242D01*
X173131782Y-103348904D01*
X172942439Y-103445380D01*
X172888282Y-103484727D01*
X172888282Y-103484728D01*
X173520591Y-104117037D01*
X173457007Y-104134075D01*
X173342993Y-104199901D01*
X173249901Y-104292993D01*
X173184075Y-104407007D01*
X173167037Y-104470591D01*
X172534728Y-103838282D01*
X172534727Y-103838282D01*
X172495380Y-103892440D01*
X172495376Y-103892446D01*
X172490760Y-103901505D01*
X172488123Y-103904295D01*
X172487190Y-103908020D01*
X172464318Y-103929496D01*
X172442781Y-103952297D01*
X172439055Y-103953219D01*
X172436256Y-103955848D01*
X172405405Y-103961549D01*
X172374959Y-103969087D01*
X172371325Y-103967848D01*
X172367550Y-103968546D01*
X172338513Y-103956663D01*
X172308826Y-103946543D01*
X172305408Y-103943115D01*
X172302886Y-103942083D01*
X172296188Y-103933868D01*
X172278726Y-103916354D01*
X172273740Y-103909239D01*
X172265051Y-103892184D01*
X172173588Y-103766294D01*
X172172946Y-103765378D01*
X172162101Y-103733251D01*
X172150702Y-103701302D01*
X172150645Y-103699315D01*
X172150599Y-103699178D01*
X172150637Y-103699026D01*
X172150500Y-103694225D01*
X172150500Y-94709568D01*
X173049500Y-94709568D01*
X173049500Y-94990431D01*
X173080942Y-95269494D01*
X173080945Y-95269512D01*
X173143439Y-95543317D01*
X173143443Y-95543329D01*
X173236200Y-95808411D01*
X173358053Y-96061442D01*
X173358055Y-96061445D01*
X173507477Y-96299248D01*
X173607586Y-96424780D01*
X173675722Y-96510221D01*
X173682584Y-96518825D01*
X173881175Y-96717416D01*
X174100752Y-96892523D01*
X174338555Y-97041945D01*
X174591592Y-97163801D01*
X174790680Y-97233465D01*
X174856670Y-97256556D01*
X174856682Y-97256560D01*
X175130491Y-97319055D01*
X175130497Y-97319055D01*
X175130505Y-97319057D01*
X175316547Y-97340018D01*
X175409569Y-97350499D01*
X175409572Y-97350500D01*
X175409575Y-97350500D01*
X175690428Y-97350500D01*
X175690429Y-97350499D01*
X175833055Y-97334429D01*
X175969494Y-97319057D01*
X175969499Y-97319056D01*
X175969509Y-97319055D01*
X176243318Y-97256560D01*
X176508408Y-97163801D01*
X176761445Y-97041945D01*
X176999248Y-96892523D01*
X177218825Y-96717416D01*
X177417416Y-96518825D01*
X177592523Y-96299248D01*
X177741945Y-96061445D01*
X177863801Y-95808408D01*
X177956560Y-95543318D01*
X178019055Y-95269509D01*
X178050500Y-94990425D01*
X178050500Y-94709575D01*
X178019055Y-94430491D01*
X177956560Y-94156682D01*
X177863801Y-93891592D01*
X177741945Y-93638555D01*
X177592523Y-93400752D01*
X177417416Y-93181175D01*
X177218825Y-92982584D01*
X176999248Y-92807477D01*
X176805943Y-92686015D01*
X176761442Y-92658053D01*
X176508411Y-92536200D01*
X176243329Y-92443443D01*
X176243317Y-92443439D01*
X175969512Y-92380945D01*
X175969494Y-92380942D01*
X175690431Y-92349500D01*
X175690425Y-92349500D01*
X175409575Y-92349500D01*
X175409568Y-92349500D01*
X175130505Y-92380942D01*
X175130487Y-92380945D01*
X174856682Y-92443439D01*
X174856670Y-92443443D01*
X174591588Y-92536200D01*
X174338557Y-92658053D01*
X174100753Y-92807476D01*
X173881175Y-92982583D01*
X173682583Y-93181175D01*
X173507476Y-93400753D01*
X173358053Y-93638557D01*
X173236200Y-93891588D01*
X173143443Y-94156670D01*
X173143439Y-94156682D01*
X173080945Y-94430487D01*
X173080942Y-94430505D01*
X173049500Y-94709568D01*
X172150500Y-94709568D01*
X172150500Y-79612230D01*
X172170185Y-79545191D01*
X172170555Y-79544617D01*
X172177634Y-79533733D01*
X172192712Y-79518656D01*
X172284814Y-79369334D01*
X172285065Y-79368574D01*
X172290042Y-79360924D01*
X172315477Y-79339128D01*
X172340395Y-79316716D01*
X172341923Y-79316467D01*
X172343098Y-79315461D01*
X172376273Y-79310877D01*
X172409358Y-79305493D01*
X172410777Y-79306109D01*
X172412310Y-79305898D01*
X172442704Y-79319981D01*
X172473440Y-79333336D01*
X172475409Y-79335136D01*
X172475705Y-79335273D01*
X172475906Y-79335590D01*
X172481668Y-79340856D01*
X172620535Y-79479723D01*
X172620540Y-79479727D01*
X172792442Y-79604620D01*
X172981782Y-79701095D01*
X173183871Y-79766757D01*
X173250000Y-79777231D01*
X173250000Y-78733012D01*
X173307007Y-78765925D01*
X173434174Y-78800000D01*
X173565826Y-78800000D01*
X173692993Y-78765925D01*
X173750000Y-78733012D01*
X173750000Y-79777230D01*
X173816126Y-79766757D01*
X173816129Y-79766757D01*
X174018217Y-79701095D01*
X174207557Y-79604620D01*
X174379459Y-79479727D01*
X174379464Y-79479723D01*
X174529723Y-79329464D01*
X174529727Y-79329459D01*
X174654620Y-79157557D01*
X174751095Y-78968217D01*
X174816757Y-78766130D01*
X174816757Y-78766127D01*
X174850000Y-78556246D01*
X174850000Y-78550000D01*
X173933012Y-78550000D01*
X173965925Y-78492993D01*
X174000000Y-78365826D01*
X174000000Y-78234174D01*
X173965925Y-78107007D01*
X173933012Y-78050000D01*
X174850000Y-78050000D01*
X174850000Y-78043753D01*
X174816757Y-77833872D01*
X174816757Y-77833869D01*
X174751095Y-77631782D01*
X174654620Y-77442442D01*
X174529727Y-77270540D01*
X174529723Y-77270535D01*
X174379464Y-77120276D01*
X174379459Y-77120272D01*
X174207557Y-76995379D01*
X174018215Y-76898903D01*
X173816124Y-76833241D01*
X173750000Y-76822768D01*
X173750000Y-77866988D01*
X173692993Y-77834075D01*
X173565826Y-77800000D01*
X173434174Y-77800000D01*
X173307007Y-77834075D01*
X173250000Y-77866988D01*
X173250000Y-76822768D01*
X173249999Y-76822768D01*
X173183875Y-76833241D01*
X172981784Y-76898903D01*
X172792442Y-76995379D01*
X172620541Y-77120271D01*
X172481668Y-77259144D01*
X172420345Y-77292628D01*
X172350653Y-77287644D01*
X172294720Y-77245772D01*
X172288448Y-77236558D01*
X172192712Y-77081344D01*
X172068657Y-76957289D01*
X172068656Y-76957288D01*
X171919334Y-76865186D01*
X171835495Y-76837404D01*
X171778051Y-76797632D01*
X171751228Y-76733116D01*
X171750500Y-76719699D01*
X171750500Y-75326079D01*
X171721659Y-75181092D01*
X171721658Y-75181091D01*
X171721658Y-75181087D01*
X171717142Y-75170185D01*
X171665087Y-75044511D01*
X171665080Y-75044498D01*
X171582952Y-74921585D01*
X171543552Y-74882185D01*
X171478416Y-74817049D01*
X170730842Y-74069475D01*
X168428421Y-71767052D01*
X168428414Y-71767046D01*
X168354729Y-71717812D01*
X168354729Y-71717813D01*
X168305491Y-71684913D01*
X168168917Y-71628343D01*
X168168907Y-71628340D01*
X168023920Y-71599500D01*
X168023918Y-71599500D01*
X129026082Y-71599500D01*
X129026080Y-71599500D01*
X128881092Y-71628340D01*
X128881086Y-71628342D01*
X128744508Y-71684914D01*
X128744496Y-71684921D01*
X128695269Y-71717813D01*
X128621588Y-71767044D01*
X128621580Y-71767050D01*
X125717047Y-74671584D01*
X125717043Y-74671589D01*
X125674733Y-74734914D01*
X125674732Y-74734916D01*
X125634919Y-74794499D01*
X125634912Y-74794511D01*
X125578343Y-74931082D01*
X125578340Y-74931092D01*
X125549500Y-75076079D01*
X125549500Y-76962779D01*
X125529815Y-77029818D01*
X125498385Y-77063097D01*
X125420211Y-77119893D01*
X125420205Y-77119898D01*
X125269890Y-77270213D01*
X125144951Y-77442179D01*
X125048444Y-77631585D01*
X124982753Y-77833760D01*
X124972262Y-77900000D01*
X124949500Y-78043713D01*
X120650500Y-78043713D01*
X120650500Y-73953051D01*
X120650649Y-73946967D01*
X120667052Y-73613072D01*
X120668245Y-73600962D01*
X120716849Y-73273296D01*
X120719218Y-73261385D01*
X120799710Y-72940043D01*
X120803240Y-72928411D01*
X120914835Y-72616525D01*
X120919476Y-72605318D01*
X121061124Y-72305828D01*
X121066840Y-72295136D01*
X121237145Y-72010998D01*
X121243888Y-72000905D01*
X121441232Y-71734818D01*
X121448935Y-71725433D01*
X121671405Y-71479975D01*
X121679975Y-71471405D01*
X121925433Y-71248935D01*
X121934818Y-71241232D01*
X122200905Y-71043888D01*
X122210998Y-71037145D01*
X122495136Y-70866840D01*
X122505828Y-70861124D01*
X122805318Y-70719476D01*
X122816525Y-70714835D01*
X123128412Y-70603239D01*
X123140043Y-70599710D01*
X123461385Y-70519218D01*
X123473296Y-70516849D01*
X123800962Y-70468244D01*
X123813068Y-70467052D01*
X124146967Y-70450648D01*
X124153051Y-70450500D01*
X124215892Y-70450500D01*
X176084108Y-70450500D01*
X176146949Y-70450500D01*
X176153032Y-70450648D01*
G37*
%TD.AperFunction*%
%TD*%
M02*
