%TF.GenerationSoftware,KiCad,Pcbnew,9.0.5*%
%TF.CreationDate,2025-10-27T16:49:33+01:00*%
%TF.ProjectId,motherboard,6d6f7468-6572-4626-9f61-72642e6b6963,rev?*%
%TF.SameCoordinates,Original*%
%TF.FileFunction,Profile,NP*%
%FSLAX46Y46*%
G04 Gerber Fmt 4.6, Leading zero omitted, Abs format (unit mm)*
G04 Created by KiCad (PCBNEW 9.0.5) date 2025-10-27 16:49:33*
%MOMM*%
%LPD*%
G01*
G04 APERTURE LIST*
%ADD10C,0.150000*%
%TA.AperFunction,Profile*%
%ADD11C,0.050000*%
%TD*%
G04 APERTURE END LIST*
D10*
X147236779Y-127459875D02*
X147236779Y-126793208D01*
X147236779Y-126459875D02*
X147189160Y-126507494D01*
X147189160Y-126507494D02*
X147236779Y-126555113D01*
X147236779Y-126555113D02*
X147284398Y-126507494D01*
X147284398Y-126507494D02*
X147236779Y-126459875D01*
X147236779Y-126459875D02*
X147236779Y-126555113D01*
X147665350Y-127412256D02*
X147808207Y-127459875D01*
X147808207Y-127459875D02*
X148046302Y-127459875D01*
X148046302Y-127459875D02*
X148141540Y-127412256D01*
X148141540Y-127412256D02*
X148189159Y-127364636D01*
X148189159Y-127364636D02*
X148236778Y-127269398D01*
X148236778Y-127269398D02*
X148236778Y-127174160D01*
X148236778Y-127174160D02*
X148189159Y-127078922D01*
X148189159Y-127078922D02*
X148141540Y-127031303D01*
X148141540Y-127031303D02*
X148046302Y-126983684D01*
X148046302Y-126983684D02*
X147855826Y-126936065D01*
X147855826Y-126936065D02*
X147760588Y-126888446D01*
X147760588Y-126888446D02*
X147712969Y-126840827D01*
X147712969Y-126840827D02*
X147665350Y-126745589D01*
X147665350Y-126745589D02*
X147665350Y-126650351D01*
X147665350Y-126650351D02*
X147712969Y-126555113D01*
X147712969Y-126555113D02*
X147760588Y-126507494D01*
X147760588Y-126507494D02*
X147855826Y-126459875D01*
X147855826Y-126459875D02*
X148093921Y-126459875D01*
X148093921Y-126459875D02*
X148236778Y-126507494D01*
X148665350Y-127459875D02*
X148665350Y-126459875D01*
X148760588Y-127078922D02*
X149046302Y-127459875D01*
X149046302Y-126793208D02*
X148665350Y-127174160D01*
X149617731Y-127459875D02*
X149522493Y-127412256D01*
X149522493Y-127412256D02*
X149474874Y-127364636D01*
X149474874Y-127364636D02*
X149427255Y-127269398D01*
X149427255Y-127269398D02*
X149427255Y-126983684D01*
X149427255Y-126983684D02*
X149474874Y-126888446D01*
X149474874Y-126888446D02*
X149522493Y-126840827D01*
X149522493Y-126840827D02*
X149617731Y-126793208D01*
X149617731Y-126793208D02*
X149760588Y-126793208D01*
X149760588Y-126793208D02*
X149855826Y-126840827D01*
X149855826Y-126840827D02*
X149903445Y-126888446D01*
X149903445Y-126888446D02*
X149951064Y-126983684D01*
X149951064Y-126983684D02*
X149951064Y-127269398D01*
X149951064Y-127269398D02*
X149903445Y-127364636D01*
X149903445Y-127364636D02*
X149855826Y-127412256D01*
X149855826Y-127412256D02*
X149760588Y-127459875D01*
X149760588Y-127459875D02*
X149617731Y-127459875D01*
X150379636Y-127459875D02*
X150379636Y-126459875D01*
X150808207Y-127459875D02*
X150808207Y-126936065D01*
X150808207Y-126936065D02*
X150760588Y-126840827D01*
X150760588Y-126840827D02*
X150665350Y-126793208D01*
X150665350Y-126793208D02*
X150522493Y-126793208D01*
X150522493Y-126793208D02*
X150427255Y-126840827D01*
X150427255Y-126840827D02*
X150379636Y-126888446D01*
X151284398Y-127459875D02*
X151284398Y-126793208D01*
X151284398Y-126888446D02*
X151332017Y-126840827D01*
X151332017Y-126840827D02*
X151427255Y-126793208D01*
X151427255Y-126793208D02*
X151570112Y-126793208D01*
X151570112Y-126793208D02*
X151665350Y-126840827D01*
X151665350Y-126840827D02*
X151712969Y-126936065D01*
X151712969Y-126936065D02*
X151712969Y-127459875D01*
X151712969Y-126936065D02*
X151760588Y-126840827D01*
X151760588Y-126840827D02*
X151855826Y-126793208D01*
X151855826Y-126793208D02*
X151998683Y-126793208D01*
X151998683Y-126793208D02*
X152093922Y-126840827D01*
X152093922Y-126840827D02*
X152141541Y-126936065D01*
X152141541Y-126936065D02*
X152141541Y-127459875D01*
X153332017Y-126555113D02*
X153379636Y-126507494D01*
X153379636Y-126507494D02*
X153474874Y-126459875D01*
X153474874Y-126459875D02*
X153712969Y-126459875D01*
X153712969Y-126459875D02*
X153808207Y-126507494D01*
X153808207Y-126507494D02*
X153855826Y-126555113D01*
X153855826Y-126555113D02*
X153903445Y-126650351D01*
X153903445Y-126650351D02*
X153903445Y-126745589D01*
X153903445Y-126745589D02*
X153855826Y-126888446D01*
X153855826Y-126888446D02*
X153284398Y-127459875D01*
X153284398Y-127459875D02*
X153903445Y-127459875D01*
X154522493Y-126459875D02*
X154617731Y-126459875D01*
X154617731Y-126459875D02*
X154712969Y-126507494D01*
X154712969Y-126507494D02*
X154760588Y-126555113D01*
X154760588Y-126555113D02*
X154808207Y-126650351D01*
X154808207Y-126650351D02*
X154855826Y-126840827D01*
X154855826Y-126840827D02*
X154855826Y-127078922D01*
X154855826Y-127078922D02*
X154808207Y-127269398D01*
X154808207Y-127269398D02*
X154760588Y-127364636D01*
X154760588Y-127364636D02*
X154712969Y-127412256D01*
X154712969Y-127412256D02*
X154617731Y-127459875D01*
X154617731Y-127459875D02*
X154522493Y-127459875D01*
X154522493Y-127459875D02*
X154427255Y-127412256D01*
X154427255Y-127412256D02*
X154379636Y-127364636D01*
X154379636Y-127364636D02*
X154332017Y-127269398D01*
X154332017Y-127269398D02*
X154284398Y-127078922D01*
X154284398Y-127078922D02*
X154284398Y-126840827D01*
X154284398Y-126840827D02*
X154332017Y-126650351D01*
X154332017Y-126650351D02*
X154379636Y-126555113D01*
X154379636Y-126555113D02*
X154427255Y-126507494D01*
X154427255Y-126507494D02*
X154522493Y-126459875D01*
X155236779Y-126555113D02*
X155284398Y-126507494D01*
X155284398Y-126507494D02*
X155379636Y-126459875D01*
X155379636Y-126459875D02*
X155617731Y-126459875D01*
X155617731Y-126459875D02*
X155712969Y-126507494D01*
X155712969Y-126507494D02*
X155760588Y-126555113D01*
X155760588Y-126555113D02*
X155808207Y-126650351D01*
X155808207Y-126650351D02*
X155808207Y-126745589D01*
X155808207Y-126745589D02*
X155760588Y-126888446D01*
X155760588Y-126888446D02*
X155189160Y-127459875D01*
X155189160Y-127459875D02*
X155808207Y-127459875D01*
X156712969Y-126459875D02*
X156236779Y-126459875D01*
X156236779Y-126459875D02*
X156189160Y-126936065D01*
X156189160Y-126936065D02*
X156236779Y-126888446D01*
X156236779Y-126888446D02*
X156332017Y-126840827D01*
X156332017Y-126840827D02*
X156570112Y-126840827D01*
X156570112Y-126840827D02*
X156665350Y-126888446D01*
X156665350Y-126888446D02*
X156712969Y-126936065D01*
X156712969Y-126936065D02*
X156760588Y-127031303D01*
X156760588Y-127031303D02*
X156760588Y-127269398D01*
X156760588Y-127269398D02*
X156712969Y-127364636D01*
X156712969Y-127364636D02*
X156665350Y-127412256D01*
X156665350Y-127412256D02*
X156570112Y-127459875D01*
X156570112Y-127459875D02*
X156332017Y-127459875D01*
X156332017Y-127459875D02*
X156236779Y-127412256D01*
X156236779Y-127412256D02*
X156189160Y-127364636D01*
X147236779Y-129069819D02*
X147236779Y-128069819D01*
X147236779Y-128069819D02*
X147617731Y-128069819D01*
X147617731Y-128069819D02*
X147712969Y-128117438D01*
X147712969Y-128117438D02*
X147760588Y-128165057D01*
X147760588Y-128165057D02*
X147808207Y-128260295D01*
X147808207Y-128260295D02*
X147808207Y-128403152D01*
X147808207Y-128403152D02*
X147760588Y-128498390D01*
X147760588Y-128498390D02*
X147712969Y-128546009D01*
X147712969Y-128546009D02*
X147617731Y-128593628D01*
X147617731Y-128593628D02*
X147236779Y-128593628D01*
X148236779Y-129069819D02*
X148236779Y-128403152D01*
X148236779Y-128069819D02*
X148189160Y-128117438D01*
X148189160Y-128117438D02*
X148236779Y-128165057D01*
X148236779Y-128165057D02*
X148284398Y-128117438D01*
X148284398Y-128117438D02*
X148236779Y-128069819D01*
X148236779Y-128069819D02*
X148236779Y-128165057D01*
X149141540Y-129022200D02*
X149046302Y-129069819D01*
X149046302Y-129069819D02*
X148855826Y-129069819D01*
X148855826Y-129069819D02*
X148760588Y-129022200D01*
X148760588Y-129022200D02*
X148712969Y-128974580D01*
X148712969Y-128974580D02*
X148665350Y-128879342D01*
X148665350Y-128879342D02*
X148665350Y-128593628D01*
X148665350Y-128593628D02*
X148712969Y-128498390D01*
X148712969Y-128498390D02*
X148760588Y-128450771D01*
X148760588Y-128450771D02*
X148855826Y-128403152D01*
X148855826Y-128403152D02*
X149046302Y-128403152D01*
X149046302Y-128403152D02*
X149141540Y-128450771D01*
X149712969Y-129069819D02*
X149617731Y-129022200D01*
X149617731Y-129022200D02*
X149570112Y-128974580D01*
X149570112Y-128974580D02*
X149522493Y-128879342D01*
X149522493Y-128879342D02*
X149522493Y-128593628D01*
X149522493Y-128593628D02*
X149570112Y-128498390D01*
X149570112Y-128498390D02*
X149617731Y-128450771D01*
X149617731Y-128450771D02*
X149712969Y-128403152D01*
X149712969Y-128403152D02*
X149855826Y-128403152D01*
X149855826Y-128403152D02*
X149951064Y-128450771D01*
X149951064Y-128450771D02*
X149998683Y-128498390D01*
X149998683Y-128498390D02*
X150046302Y-128593628D01*
X150046302Y-128593628D02*
X150046302Y-128879342D01*
X150046302Y-128879342D02*
X149998683Y-128974580D01*
X149998683Y-128974580D02*
X149951064Y-129022200D01*
X149951064Y-129022200D02*
X149855826Y-129069819D01*
X149855826Y-129069819D02*
X149712969Y-129069819D01*
X151379636Y-128498390D02*
X151284398Y-128450771D01*
X151284398Y-128450771D02*
X151236779Y-128403152D01*
X151236779Y-128403152D02*
X151189160Y-128307914D01*
X151189160Y-128307914D02*
X151189160Y-128260295D01*
X151189160Y-128260295D02*
X151236779Y-128165057D01*
X151236779Y-128165057D02*
X151284398Y-128117438D01*
X151284398Y-128117438D02*
X151379636Y-128069819D01*
X151379636Y-128069819D02*
X151570112Y-128069819D01*
X151570112Y-128069819D02*
X151665350Y-128117438D01*
X151665350Y-128117438D02*
X151712969Y-128165057D01*
X151712969Y-128165057D02*
X151760588Y-128260295D01*
X151760588Y-128260295D02*
X151760588Y-128307914D01*
X151760588Y-128307914D02*
X151712969Y-128403152D01*
X151712969Y-128403152D02*
X151665350Y-128450771D01*
X151665350Y-128450771D02*
X151570112Y-128498390D01*
X151570112Y-128498390D02*
X151379636Y-128498390D01*
X151379636Y-128498390D02*
X151284398Y-128546009D01*
X151284398Y-128546009D02*
X151236779Y-128593628D01*
X151236779Y-128593628D02*
X151189160Y-128688866D01*
X151189160Y-128688866D02*
X151189160Y-128879342D01*
X151189160Y-128879342D02*
X151236779Y-128974580D01*
X151236779Y-128974580D02*
X151284398Y-129022200D01*
X151284398Y-129022200D02*
X151379636Y-129069819D01*
X151379636Y-129069819D02*
X151570112Y-129069819D01*
X151570112Y-129069819D02*
X151665350Y-129022200D01*
X151665350Y-129022200D02*
X151712969Y-128974580D01*
X151712969Y-128974580D02*
X151760588Y-128879342D01*
X151760588Y-128879342D02*
X151760588Y-128688866D01*
X151760588Y-128688866D02*
X151712969Y-128593628D01*
X151712969Y-128593628D02*
X151665350Y-128546009D01*
X151665350Y-128546009D02*
X151570112Y-128498390D01*
X152141541Y-129022200D02*
X152284398Y-129069819D01*
X152284398Y-129069819D02*
X152522493Y-129069819D01*
X152522493Y-129069819D02*
X152617731Y-129022200D01*
X152617731Y-129022200D02*
X152665350Y-128974580D01*
X152665350Y-128974580D02*
X152712969Y-128879342D01*
X152712969Y-128879342D02*
X152712969Y-128784104D01*
X152712969Y-128784104D02*
X152665350Y-128688866D01*
X152665350Y-128688866D02*
X152617731Y-128641247D01*
X152617731Y-128641247D02*
X152522493Y-128593628D01*
X152522493Y-128593628D02*
X152332017Y-128546009D01*
X152332017Y-128546009D02*
X152236779Y-128498390D01*
X152236779Y-128498390D02*
X152189160Y-128450771D01*
X152189160Y-128450771D02*
X152141541Y-128355533D01*
X152141541Y-128355533D02*
X152141541Y-128260295D01*
X152141541Y-128260295D02*
X152189160Y-128165057D01*
X152189160Y-128165057D02*
X152236779Y-128117438D01*
X152236779Y-128117438D02*
X152332017Y-128069819D01*
X152332017Y-128069819D02*
X152570112Y-128069819D01*
X152570112Y-128069819D02*
X152712969Y-128117438D01*
D11*
X177550000Y-94850000D02*
G75*
G02*
X173550000Y-94850000I-2000000J0D01*
G01*
X173550000Y-94850000D02*
G75*
G02*
X177550000Y-94850000I2000000J0D01*
G01*
X125750000Y-94950000D02*
G75*
G02*
X121750000Y-94950000I-2000000J0D01*
G01*
X121750000Y-94950000D02*
G75*
G02*
X125750000Y-94950000I2000000J0D01*
G01*
X120150000Y-73950000D02*
X120150000Y-125950000D01*
X176150000Y-69950000D02*
X124150000Y-69950000D01*
X180150000Y-125950000D02*
X180150000Y-73950000D01*
X124150000Y-129950000D02*
X176150000Y-129950000D01*
X124150000Y-129950000D02*
G75*
G02*
X120150000Y-125950000I0J4000000D01*
G01*
X180150000Y-125950000D02*
G75*
G02*
X176150000Y-129950000I-4000000J0D01*
G01*
X176150000Y-69950000D02*
G75*
G02*
X180150000Y-73950000I0J-4000000D01*
G01*
X120150000Y-73950000D02*
G75*
G02*
X124150000Y-69950000I4000000J0D01*
G01*
M02*
