%TF.GenerationSoftware,KiCad,Pcbnew,9.0.5*%
%TF.CreationDate,2025-10-27T16:41:44+01:00*%
%TF.ProjectId,motherboard,6d6f7468-6572-4626-9f61-72642e6b6963,rev?*%
%TF.SameCoordinates,Original*%
%TF.FileFunction,Soldermask,Top*%
%TF.FilePolarity,Negative*%
%FSLAX46Y46*%
G04 Gerber Fmt 4.6, Leading zero omitted, Abs format (unit mm)*
G04 Created by KiCad (PCBNEW 9.0.5) date 2025-10-27 16:41:44*
%MOMM*%
%LPD*%
G01*
G04 APERTURE LIST*
G04 Aperture macros list*
%AMRoundRect*
0 Rectangle with rounded corners*
0 $1 Rounding radius*
0 $2 $3 $4 $5 $6 $7 $8 $9 X,Y pos of 4 corners*
0 Add a 4 corners polygon primitive as box body*
4,1,4,$2,$3,$4,$5,$6,$7,$8,$9,$2,$3,0*
0 Add four circle primitives for the rounded corners*
1,1,$1+$1,$2,$3*
1,1,$1+$1,$4,$5*
1,1,$1+$1,$6,$7*
1,1,$1+$1,$8,$9*
0 Add four rect primitives between the rounded corners*
20,1,$1+$1,$2,$3,$4,$5,0*
20,1,$1+$1,$4,$5,$6,$7,0*
20,1,$1+$1,$6,$7,$8,$9,0*
20,1,$1+$1,$8,$9,$2,$3,0*%
G04 Aperture macros list end*
%ADD10R,1.700000X1.700000*%
%ADD11C,1.700000*%
%ADD12O,2.400000X1.800000*%
%ADD13C,1.600000*%
%ADD14RoundRect,0.250000X-0.600000X-0.750000X0.600000X-0.750000X0.600000X0.750000X-0.600000X0.750000X0*%
%ADD15O,1.700000X2.000000*%
G04 APERTURE END LIST*
D10*
%TO.C,J10*%
X168570000Y-104600000D03*
D11*
X171110000Y-104600000D03*
X173650000Y-104600000D03*
%TD*%
D10*
%TO.C,J9*%
X168570000Y-110900000D03*
D11*
X171110000Y-110900000D03*
X173650000Y-110900000D03*
%TD*%
D10*
%TO.C,J8*%
X132840000Y-104650000D03*
D11*
X130300000Y-104650000D03*
X127760000Y-104650000D03*
%TD*%
D10*
%TO.C,J7*%
X132850000Y-110700000D03*
D11*
X130310000Y-110700000D03*
X127770000Y-110700000D03*
%TD*%
D12*
%TO.C,A1*%
X142770000Y-76080000D03*
X142770000Y-78620000D03*
X142770000Y-81160000D03*
X142770000Y-83700000D03*
X142770000Y-86240000D03*
X142770000Y-88780000D03*
X142770000Y-91320000D03*
X142770000Y-93860000D03*
X142770000Y-96400000D03*
X142770000Y-98940000D03*
X142770000Y-101480000D03*
X142770000Y-104020000D03*
X142770000Y-106560000D03*
X142770000Y-109100000D03*
X142770000Y-111640000D03*
X142770000Y-114180000D03*
X142770000Y-116720000D03*
X142770000Y-119260000D03*
X142770000Y-121800000D03*
X142770000Y-124340000D03*
X160550000Y-124340000D03*
X160550000Y-121800000D03*
X160550000Y-119260000D03*
X160550000Y-116720000D03*
X160550000Y-114180000D03*
X160550000Y-111640000D03*
X160550000Y-109100000D03*
X160550000Y-106560000D03*
X160550000Y-104020000D03*
X160550000Y-101480000D03*
X160550000Y-98940000D03*
X160550000Y-96400000D03*
X160550000Y-93860000D03*
X160550000Y-91320000D03*
X160550000Y-88780000D03*
X160550000Y-86240000D03*
X160550000Y-83700000D03*
X160550000Y-81160000D03*
X160550000Y-78620000D03*
X160550000Y-76080000D03*
%TD*%
D13*
%TO.C,R2*%
X135250000Y-87470000D03*
X135250000Y-97630000D03*
%TD*%
%TO.C,R1*%
X130100000Y-97680000D03*
X130100000Y-87520000D03*
%TD*%
D10*
%TO.C,J6*%
X133920000Y-78150000D03*
D11*
X131380000Y-78150000D03*
X128840000Y-78150000D03*
X126300000Y-78150000D03*
%TD*%
D10*
%TO.C,J5*%
X168860000Y-122950000D03*
D11*
X171400000Y-122950000D03*
X173940000Y-122950000D03*
%TD*%
D10*
%TO.C,J4*%
X168810000Y-117000000D03*
D11*
X171350000Y-117000000D03*
X173890000Y-117000000D03*
%TD*%
D10*
%TO.C,J3*%
X132850000Y-116900000D03*
D11*
X130310000Y-116900000D03*
X127770000Y-116900000D03*
%TD*%
D14*
%TO.C,J2*%
X171000000Y-78300000D03*
D15*
X173500000Y-78300000D03*
%TD*%
D10*
%TO.C,J1*%
X132940000Y-123000000D03*
D11*
X130400000Y-123000000D03*
X127860000Y-123000000D03*
%TD*%
M02*
